<?xml version="1.0" encoding="UTF-8" standalone="no"?>
<svg
   version="1.0"
   width="1024px"
   height="1024px"
   viewBox="0 0 1024 1024"
   preserveAspectRatio="xMidYMid meet"
   id="svg6716"
   sodipodi:docname="FreeSample-Vectorizer-io-20250830_1256_Gaming Dev Logo_simple_compose_01k3x9x3j5erj9x4t81.svg"
   inkscape:version="1.3.2 (091e20e, 2023-11-25)"
   xmlns:inkscape="http://www.inkscape.org/namespaces/inkscape"
   xmlns:sodipodi="http://sodipodi.sourceforge.net/DTD/sodipodi-0.dtd"
   xmlns="http://www.w3.org/2000/svg"
   xmlns:svg="http://www.w3.org/2000/svg">
  <defs
     id="defs6716" />
  <sodipodi:namedview
     id="namedview6716"
     pagecolor="#ffffff"
     bordercolor="#000000"
     borderopacity="0.25"
     inkscape:showpageshadow="2"
     inkscape:pageopacity="0.0"
     inkscape:pagecheckerboard="0"
     inkscape:deskcolor="#d1d1d1"
     inkscape:zoom="0.74241883"
     inkscape:cx="915.25157"
     inkscape:cy="633.73931"
     inkscape:window-width="2560"
     inkscape:window-height="1212"
     inkscape:window-x="0"
     inkscape:window-y="25"
     inkscape:window-maximized="0"
     inkscape:current-layer="svg6716" />
  <g
     fill="#f5f1ec"
     id="g38"
     style="display:inline">
    <path
       d="m 487,765.95 c -3.75,-0.4 -4.1,-0.5 -14,-5.6 -9.1,-4.7 -16,-7.7 -21.5,-9.4 -1.8,-0.5 -5.4,-1.6 -8,-2.45 -2.6,-0.8 -6.55,-1.9 -8.75,-2.45 -4.1,-1.05 -26.25,-6.6 -30.25,-7.6 -1.25,-0.3 -2.7,-0.75 -3.25,-0.95 -0.55,-0.25 -2,-0.7 -3.25,-1.05 -1.85,-0.45 -7.2,-2.1 -16.1,-4.95 -0.85,-0.25 -1.4,-0.25 -1.4,0 0,0.25 1.7,2.4 3.75,4.75 3.6,4.15 3.75,4.4 3.75,6.9 0,3.35 -1.4,5.45 -4.2,6.25 -7.25,2.1 -40.6,-0.75 -54.55,-4.65 -1.35,-0.35 -3.3,-0.85 -4.25,-1 -3,-0.55 -12,-3.25 -17.7,-5.3 -12.8,-4.7 -34.5,-16.5 -44.3,-24.05 -0.95,-0.75 -4,-3.05 -6.75,-5.1 -2.75,-2.1 -7.35,-6 -10.25,-8.75 -5.7,-5.4 -6.1,-5.45 -5.05,-0.5 0.75,3.4 0.7,11.5 -0.05,13.95 -0.45,1.35 -0.95,2 -1.5,2 -0.5,0 -0.9,0.3 -0.9,0.7 0,1.25 -5.3,1.75 -8.45,0.75 -4.85,-1.55 -7.95,-2.7 -9.55,-3.5 -0.95,-0.5 -2.65,-1.15 -3.75,-1.5 -4.1,-1.25 -18.2,-10 -23.8,-14.8 -1.55,-1.3 -4.6,-3.9 -6.75,-5.7 -11.25,-9.5 -21.9,-24.25 -28.4,-39.3 -3.2,-7.4 -5.5,-15.65 -6.85,-24.65 -0.85,-5.4 -0.9,-23.3 -0.1,-29.25 1.05,-7.8 4.8,-23.2 7.65,-31.45 0.55,-1.65 1,-3.05 1,-3.15 0,-0.05 -1.65,-0.15 -3.6,-0.15 -14.45,-0.05 -29.35,-5.35 -38.15,-13.55 -1.85,-1.8 -3.45,-3.7 -3.75,-4.7 -0.5,-1.6 -0.35,-5.95 0.35,-8.4 0.2,-0.85 5,-3.35 6.4,-3.35 1.55,0 12.45,-6.8 17.25,-10.7 2.6,-2.15 11,-10.25 11,-10.6 0,-0.15 1.45,-2 3.2,-4.15 5.95,-7.35 10.3,-14.4 15.25,-24.65 3.85,-8.05 4.05,-8.55 9.8,-25.15 2.3,-6.6 4.85,-13.9 5.65,-16.25 0.8,-2.35 1.8,-5.25 2.2,-6.5 9,-27.7 15.95,-44.4 27,-64.75 8.85,-16.3 13.95,-23.3 25.75,-35.35 9.15,-9.3 14.6,-14.05 22.35,-19.35 3.65,-2.45 4.2,-3 3.35,-3.3 -2.3,-0.7 -12.5,-8.25 -15.3,-11.3 -7.6,-8.25 -13.4,-19.65 -15.5,-30.55 -1.3,-6.65 -1.55,-17.7 -0.55,-23.9 3.2,-19.9 15,-33.5 33.3,-38.4 4.75,-1.3 16,-2.3 20.7,-1.85 15.4,1.4 28.25,4.8 39.3,10.5 5.7,2.9 5.25,3.2 5.95,-3.85 0.5,-5.4 1.1,-8.7 2.45,-13.4 0.2,-0.7 1.1,-2.65 1.95,-4.35 4.15,-7.95 11.6,-14 21.15,-17.05 6.65,-2.15 11.6,-2.75 20.5,-2.45 14.15,0.5 24.1,3.75 36.45,11.85 10.15,6.65 22.25,21 27.95,33 1.5,3.15 2.75,5.85 2.85,5.9 0.1,0.1 1.2,-0.5 2.4,-1.35 3.9,-2.65 7.1,-3.65 12.7,-3.95 11.75,-0.55 22.85,5.15 31.05,16.05 4.7,6.2 7.6,11.85 10.05,19.2 2.6,8.05 3.65,13.6 4.05,22.15 0.7,13.6 -0.8,24.75 -5,37.35 -2.25,6.8 -8.75,20.95 -10.35,22.6 -0.4,0.35 -1.15,1.6 -1.75,2.75 -0.55,1.1 -1.55,2.7 -2.2,3.45 -0.65,0.8 -1.2,1.65 -1.2,1.9 0,0.5 -2.9,4.8 -5.05,7.4 l -1.4,1.7 1.05,2 c 1.45,2.85 2.3,5.4 3.85,11.05 l 1.35,4.9 7.45,2.65 c 10.05,3.5 15.1,6.05 23.25,11.65 16.4,11.35 29.05,24.65 35.4,37.35 5.6,11.15 7.45,17.8 8.1,29.35 0.4,7 0.35,8.15 -0.35,9.2 -0.45,0.7 -0.7,1.3 -0.6,1.45 0.25,0.25 -16.05,0.25 165.45,-0.05 103.1,-0.15 161.3,-0.05 165.1,0.25 4.7,0.4 6.35,0.75 8.5,1.85 4.45,2.25 6.75,4.1 9.6,7.6 4.7,5.8 4.85,6.5 5.35,20.6 0.55,15.7 0.1,241.25 -0.5,245.25 -0.95,6.2 -3.1,10.4 -8,15.3 -3.7,3.7 -9.05,6.7 -14.55,8.1 -3,0.8 -17.3,0.9 -201,1 -108.75,0.05 -199,-0.05 -200.5,-0.2 z M 885.65,761.7 C 896.2,759 904.6,751 907.1,741.25 c 0.5,-2 0.65,-27.55 0.65,-127.75 V 488.25 l -1.4,-2.9 c -2.5,-5.05 -9.15,-11.25 -14.35,-13.4 -1.5,-0.6 -23.55,-0.7 -159,-0.65 -86.5,0 -170.15,0.15 -185.85,0.3 l -28.65,0.3 v -1.6 c 0,-1.45 0.3,-1.75 2.9,-3 4.25,-2.15 9,-2.8 20.25,-2.8 11.65,0 12.55,-0.25 13.1,-3.55 1.1,-6.4 -1.95,-18.9 -7.1,-29.15 -6.65,-13.3 -15.85,-23.5 -31.9,-35.5 -7.05,-5.25 -10.2,-7.2 -16.25,-10.1 -4.25,-2.05 -4.55,-2.2 -9,-3.85 -2.95,-1.15 -4.9,-1.7 -8.55,-2.55 -1.15,-0.25 -1.4,-0.65 -1.7,-2.65 -0.5,-3.3 -2.9,-10.35 -5,-14.55 -2.8,-5.75 -2.6,-6.5 4.35,-15.85 1.05,-1.35 1.9,-2.65 1.9,-2.85 0,-0.2 0.7,-1.35 1.5,-2.55 0.85,-1.25 1.5,-2.4 1.5,-2.6 0,-0.15 0.55,-1.05 1.2,-1.9 1.85,-2.45 7.45,-13.95 9.55,-19.6 6.1,-16.55 7.55,-31.9 4.45,-46.9 -4.85,-23.1 -17.25,-38.6 -34.35,-42.9 -5.45,-1.35 -13.5,1.4 -17.25,5.9 -1.55,1.8 -2.1,2.15 -3.65,2.15 -1.7,0 -1.9,-0.15 -2.5,-1.85 -2.2,-6.85 -9.6,-19.25 -16,-26.8 -10.15,-11.95 -22,-19.55 -36.95,-23.55 -12.55,-3.35 -26.05,-1.85 -36.1,4.05 -4.4,2.6 -10.25,8.6 -12.3,12.65 -3.25,6.55 -5.3,17.7 -4.15,22.95 0.3,1.45 0.55,3.25 0.55,4.05 0,1.4 -0.15,1.5 -1.8,1.5 -1.1,0 -2.55,-0.5 -3.85,-1.4 -1.15,-0.8 -4.35,-2.5 -7.1,-3.8 -2.75,-1.3 -5.65,-2.7 -6.5,-3.15 -2.15,-1.1 -12.95,-4.6 -16.75,-5.4 -11.6,-2.45 -22.6,-3.05 -29,-1.55 -6.85,1.6 -7.85,1.9 -11.9,4.1 -8.75,4.75 -14.15,10.2 -18.25,18.4 -3.95,7.95 -5.35,13.35 -5.35,21.3 0,23.25 12.3,43.5 32.25,53.1 4.3,2.05 4.3,2.05 4.15,3.8 -0.1,1.1 -0.5,1.95 -1.15,2.3 -2.6,1.45 -9.15,6.05 -14.8,10.4 -8.1,6.15 -23.2,21.95 -29.1,30.25 -2.4,3.4 -8.05,12.6 -9.25,15 -0.5,1.05 -1.45,2.8 -2.1,3.9 -4.55,7.9 -10.75,21.1 -16.25,34.5 -2.55,6.2 -10.55,29.1 -11.1,31.75 -0.15,0.7 -0.45,1.5 -0.65,1.75 -0.25,0.3 -0.75,1.65 -1.15,3 -0.45,1.4 -2.15,6.45 -3.85,11.25 -1.7,4.8 -3.6,10.35 -4.25,12.25 -2.1,6.25 -4.6,12.4 -6.7,16.6 -1.1,2.2 -2.05,4.15 -2.05,4.3 0,0.55 -6.35,11.4 -8.45,14.35 -5.6,8 -14.3,17.6 -20.45,22.55 -6.7,5.4 -12.4,8.7 -20.35,11.75 -2.15,0.85 -2.5,1.2 -2.65,2.5 -0.1,1.25 0.25,1.95 2.3,3.9 4.05,3.95 8.45,6.65 16.1,9.95 5.95,2.55 15.7,4.35 23.9,4.35 h 5.1 v 1.5 c 0,0.85 -0.2,1.9 -0.45,2.4 -0.7,1.25 -4.35,12.8 -6.3,20 -1.6,5.75 -2.5,10.2 -3.75,19.3 -1.3,8.8 -0.45,23 1.85,31.3 2.1,7.65 2.7,9.65 3.1,10.25 0.2,0.3 0.65,1.4 1,2.5 1.9,5.45 7,14.9 11.95,22 9.05,13.05 23.75,26.35 38.3,34.6 9.35,5.3 19.95,9.65 23.6,9.65 1.55,0 1.65,-0.1 2.25,-2.75 0.5,-2.3 0.5,-3.8 -0.25,-9.15 -0.45,-3.5 -1.05,-7.45 -1.3,-8.85 -0.25,-1.35 -0.65,-3.7 -0.8,-5.1 l -0.35,-2.65 h 1.55 c 1.35,0 2.45,0.9 7.2,5.55 14.5,14.35 27.75,24.25 44.15,33 16.5,8.8 25.15,12.2 41.15,16.2 16,4 29.6,5.8 43.3,5.8 10.85,0 12.95,-0.95 9.6,-4.45 -1.95,-2 -4.2,-5.1 -7.8,-10.7 -1.8,-2.8 -2.5,-4.4 -2.5,-5.65 0,-1.65 0.1,-1.75 1.6,-1.75 0.85,0 2.75,0.6 4.25,1.3 6.25,2.9 26.55,9 48.9,14.6 30.1,7.6 36.95,9.95 51.35,17.95 3.25,1.8 7.15,3.65 8.75,4.15 2.8,0.9 9.8,0.95 199.55,0.95 177.7,0 196.9,-0.05 199.75,-0.75 z"
       id="path21" />
    <path
       d="m 474,737.85 c -0.7,-0.3 -3.4,-1.55 -6,-2.75 -5.65,-2.65 -13.4,-5.6 -14.6,-5.6 -0.5,0 -0.9,-0.2 -0.9,-0.45 0,-0.25 -0.85,-0.55 -1.85,-0.7 -1.05,-0.1 -3.7,-0.7 -5.9,-1.3 -2.2,-0.6 -7.5,-1.9 -11.75,-2.85 -7.4,-1.7 -17.05,-4.3 -25.75,-6.95 -2.2,-0.7 -6.35,-1.95 -9.25,-2.8 -6.4,-1.9 -17.65,-5.95 -18,-6.5 -0.15,-0.2 -0.95,-0.55 -1.75,-0.75 -0.85,-0.2 -2.3,-0.75 -3.25,-1.25 -0.95,-0.45 -3.45,-1.65 -5.5,-2.65 -4.2,-2 -10,-5.1 -12.25,-6.5 C 351.1,692.85 344.3,688.15 342,686.25 340.5,685 338.85,684 338.4,684 c -0.7,0 -0.9,-0.4 -0.9,-1.7 0,-1.3 0.25,-1.75 1.15,-2 2,-0.55 3.85,-0.3 4.75,0.6 0.45,0.45 1.9,1.65 3.1,2.6 1.25,0.95 2.35,1.85 2.5,2 0.15,0.15 1.4,0.95 2.75,1.75 1.4,0.75 3.2,1.9 4,2.55 3.55,2.65 14.85,8.85 21.4,11.65 2.65,1.2 4.85,2.35 4.85,2.6 0,0.25 0.55,0.45 1.2,0.45 1.2,0 7.95,2.3 11.1,3.75 0.9,0.4 3,1.1 4.75,1.55 3.8,0.9 7.8,2.1 9.2,2.7 0.55,0.25 2.35,0.75 4,1.15 1.65,0.4 6.25,1.65 10.25,2.75 4,1.1 10.4,2.75 14.25,3.6 3.85,0.85 8.45,2 10.25,2.5 1.75,0.55 3.3,0.9 3.35,0.8 0.35,-0.35 -7,-5.7 -9,-6.6 -2.85,-1.3 -7.95,-4.3 -9,-5.25 -0.6,-0.5 -1.3,-0.95 -1.65,-0.95 -0.35,0 -0.95,-0.3 -1.3,-0.6 -0.95,-0.95 -6.9,-3.7 -8.75,-4.1 -0.85,-0.2 -2.65,-1.15 -4,-2.1 -1.3,-0.95 -2.75,-1.7 -3.15,-1.7 -0.7,0 -7.55,-3.85 -8.85,-5 -0.35,-0.25 -0.85,-0.5 -1.1,-0.5 -0.25,0 -0.8,-0.3 -1.15,-0.7 -0.4,-0.4 -1.95,-1.3 -3.4,-2.05 -1.45,-0.75 -3,-1.7 -3.4,-2.05 -0.4,-0.4 -1.65,-1.2 -2.8,-1.8 -1.1,-0.55 -3.85,-2.25 -6.1,-3.7 -2.2,-1.5 -4.2,-2.7 -4.4,-2.7 -0.2,0 -0.85,-0.45 -1.45,-1.05 -0.6,-0.55 -3.3,-2.35 -5.95,-4 -5.55,-3.4 -11.65,-7.9 -18.15,-13.4 -2.45,-2.1 -4.7,-3.95 -5,-4.15 -2.15,-1.5 -13.1,-11.15 -15.55,-13.7 -1.7,-1.75 -3.3,-3.2 -3.55,-3.2 -0.25,0 -2.9,-2.6 -5.95,-5.8 -6.15,-6.6 -11.8,-12.2 -12.2,-12.2 -0.5,0 -1.5,11.6 -1.5,17.35 0,4 -0.2,5.65 -0.6,5.8 -0.5,0.2 -0.5,0.3 0,0.3 0.4,0.05 0.6,1 0.6,2.95 0,3.25 1.1,12.25 2.25,18.3 0.4,2.15 0.75,5.35 0.75,7.1 v 3.2 h -2.55 c -1.65,0 -3,-0.3 -3.85,-0.9 -0.75,-0.5 -3.15,-1.9 -5.35,-3.1 -4.7,-2.55 -7.5,-4.4 -11.25,-7.5 -1.5,-1.25 -3.2,-2.6 -3.75,-3 -1.55,-1.2 -11.25,-10.95 -13.85,-14 -1.3,-1.5 -3.45,-4.3 -4.75,-6.25 -1.3,-1.9 -2.55,-3.6 -2.7,-3.75 -0.2,-0.15 -1.55,-2.15 -3.1,-4.55 C 257.1,626.05 247.8,601.2 246,587.5 c -0.25,-1.8 -0.65,-4.25 -0.9,-5.5 -0.3,-1.25 -0.8,-4.3 -1.1,-6.8 l -0.6,-4.55 -2.45,2.45 c -1.35,1.35 -2.45,2.65 -2.45,2.9 0,0.3 -0.35,0.5 -0.75,0.5 -0.5,0 -0.75,0.5 -0.75,1.4 0,0.75 -0.6,2.05 -1.5,3.1 -0.8,0.95 -2.2,3.2 -3.1,5 -0.9,1.8 -1.8,3.35 -2,3.5 -0.2,0.15 -0.7,1.2 -1.15,2.25 -0.45,1.1 -1,2.5 -1.25,3.15 -0.3,0.6 -0.75,1.7 -1.05,2.5 -2.2,5.45 -3.1,7.3 -3.8,7.75 -0.35,0.2 -0.65,1.1 -0.65,1.9 0,1.45 -0.1,1.5 -1.85,1.35 l -1.9,-0.15 -2.4,-6.4 c -3.1,-8.3 -4.55,-14.05 -6.15,-24.85 -1.2,-8.05 -1.3,-9.65 -1.05,-20.25 0.35,-14.95 2.1,-24.4 7.85,-42.75 5.5,-17.55 7.1,-23.15 8.95,-31.25 1.5,-6.7 4.15,-21.35 3.85,-21.6 -0.1,-0.15 -0.6,0.6 -1.1,1.65 -0.5,1 -1.3,1.95 -1.8,2.1 -0.5,0.1 -0.9,0.5 -0.9,0.85 0,0.7 -1.55,2.2 -3.15,2.95 -0.6,0.3 -1.15,1.1 -1.25,1.7 -0.1,0.7 -0.5,1.1 -1.15,1.1 -0.5,0 -1.2,0.45 -1.55,1 -0.35,0.55 -0.9,1 -1.2,1 -0.35,0 -1.4,0.9 -2.4,2 -1,1.1 -2,2 -2.25,2 -0.25,0 -0.55,0.45 -0.7,1 -0.15,0.6 -0.7,1 -1.25,1 -0.6,0 -1.15,0.45 -1.35,1 -0.2,0.65 -0.9,1.15 -1.8,1.35 -0.8,0.15 -1.45,0.5 -1.45,0.7 0,0.25 -0.55,0.7 -1.25,0.95 -0.7,0.25 -1.4,0.85 -1.55,1.25 -0.2,0.4 -0.6,0.75 -1,0.75 -0.4,0 -0.7,0.25 -0.7,0.5 0,0.3 -0.35,0.5 -0.75,0.5 -0.45,0 -0.9,0.35 -1.05,0.75 -0.2,0.4 -0.5,0.75 -0.75,0.75 -0.25,0 -2,1 -3.95,2.25 -2.35,1.5 -3.6,2.65 -3.8,3.5 -0.15,0.7 -0.5,1.25 -0.75,1.25 -0.25,0 -0.45,0.45 -0.45,1 0,0.55 -0.15,1 -0.4,1 -0.35,0 -0.7,0.75 -2.1,4.4 -0.35,0.85 -0.8,1.6 -1.05,1.6 -0.25,0 -0.45,0.45 -0.45,1 0,0.55 -0.35,1.15 -0.75,1.3 -0.4,0.2 -0.75,0.75 -0.75,1.25 0,0.5 -0.35,0.95 -0.75,0.95 -0.45,0 -0.75,0.45 -0.75,1.25 0,0.7 -0.2,1.25 -0.4,1.25 -0.25,0 -0.75,0.55 -1.1,1.25 -0.35,0.7 -0.95,1.25 -1.35,1.25 -0.35,0 -0.65,0.55 -0.65,1.2 0,1.75 -0.5,2.8 -1.3,2.8 -0.4,0 -0.7,0.5 -0.7,1.15 0,0.75 -0.45,1.45 -1.25,1.85 -0.7,0.35 -1.25,1.1 -1.25,1.6 0,0.5 -0.2,0.9 -0.5,0.9 -0.25,0 -0.5,0.35 -0.5,0.75 0,0.55 -0.55,0.75 -2,0.75 -1.95,0 -2,-0.05 -2,-1.75 0,-1.2 0.25,-1.75 0.75,-1.75 0.4,0 0.75,-0.35 0.75,-0.75 0,-0.4 0.25,-0.75 0.5,-0.75 0.3,0 0.5,-0.45 0.5,-1 0,-0.5 0.55,-1.5 1.25,-2.2 0.7,-0.7 1.25,-1.4 1.25,-1.55 0,-0.5 1.4,-1.75 1.95,-1.75 0.3,0 0.55,-0.6 0.55,-1.35 0,-1.2 1.5,-4.4 2.45,-5.15 0.4,-0.35 7.1,-13.65 7.05,-14.1 0,-0.2 0.55,-1.55 1.2,-3 2.95,-6.6 4.4,-10.15 6.9,-16.9 0.55,-1.5 1.2,-3.2 1.4,-3.75 1.35,-3.4 2.85,-7.6 5.55,-16 3.65,-11.25 9.6,-28.95 10.9,-32.5 2.2,-5.85 4.3,-11.15 5.35,-13.5 0.6,-1.35 1.8,-4.2 2.7,-6.25 4.6,-10.7 13.35,-26.05 20,-35.15 16.15,-22.15 41.15,-39.7 68.1,-47.9 7.4,-2.25 12.05,-3.3 21.3,-4.95 10.15,-1.8 30.55,-2.6 38.95,-1.5 15.65,2.05 24.3,4.1 34.2,8 19.65,7.8 34.95,20.55 47.8,39.95 5.05,7.6 7.65,13.35 7.65,17.15 v 2.85 l -2.85,1.3 c -4.9,2.25 -8.35,2.9 -13.9,2.65 -7.4,-0.35 -8.8,-1.15 -22.5,-12.2 -4.1,-3.3 -9,-7.05 -10.85,-8.35 -12.05,-8.2 -27.35,-13.8 -42.05,-15.4 -11.2,-1.15 -25,2.15 -27.35,6.55 -0.75,1.35 0.65,2.5 3.05,2.5 1.95,0 1.95,0 1.95,1.95 0,1.6 -0.2,2.05 -1.1,2.35 -1.95,0.55 -7,4.45 -10.55,8.05 -6.85,6.95 -11.65,16 -14.2,26.8 -1.25,5.15 -1.2,17.4 0.05,21.85 2.5,9.1 4.85,14 10.15,21.15 8.8,11.8 21.7,19.8 36.4,22.6 6.9,1.3 15.75,0.35 23.5,-2.55 1.95,-0.75 4.55,-1.45 5.9,-1.55 l 2.35,-0.25 v 4 4.05 l -5.1,4.45 c -15.35,13.35 -26.2,28.1 -32.8,44.65 -2.8,6.95 -4.15,11.5 -6.65,22.45 -0.85,3.7 -1.15,16.35 -0.5,21.05 1.3,9.05 3.7,16.6 7.65,23.8 11.2,20.45 33.2,32.1 53.65,28.4 4.6,-0.8 9.5,-2.7 12.55,-4.8 1.2,-0.8 2.25,-1.45 2.4,-1.45 0.3,0 2.15,-1.85 5.15,-5.15 1.45,-1.65 1.95,-1.9 3.5,-1.75 1.75,0.15 2.1,0.5 6.25,6.4 2.4,3.45 4.55,6.6 4.75,7 0.2,0.45 1.9,3.15 3.7,6 7.05,11.15 9.45,15.15 9.45,15.8 0,0.4 0.15,0.7 0.4,0.7 0.2,0 0.6,0.5 0.9,1.15 0.3,0.6 2.05,4.05 3.9,7.6 1.8,3.6 3.3,7 3.3,7.65 0,0.6 0.2,1.1 0.45,1.1 0.25,0 0.7,0.75 1.05,1.65 0.3,0.85 1.1,2.6 1.75,3.9 1.5,2.95 5.55,15.5 6.8,21.1 1.15,5.25 2.15,12.6 3,22.2 0.5,5.65 0.5,8.9 0,15.7 -0.35,4.7 -0.8,9.7 -1.05,11.1 -0.45,2.4 -2,13.45 -2,14.05 0,0.55 -4.7,0.25 -6,-0.35 z m -7,-85.15 c 0,-0.7 -7.2,-15.35 -8.3,-16.95 -0.4,-0.55 -0.7,-1.45 -0.7,-2.05 0,-0.6 -0.3,-1.2 -0.65,-1.35 -0.35,-0.15 -2.75,-3.7 -5.3,-7.9 -6.55,-10.8 -14.95,-23.4 -15.6,-23.45 -0.15,0 -1.05,0.8 -2,1.75 -0.95,0.95 -1.85,1.75 -2.05,1.75 -0.2,0 -1,0.6 -1.75,1.3 -2.1,2 -8.05,4.55 -12.75,5.5 -2.3,0.45 -4.25,1 -4.4,1.25 -0.3,0.45 -16.35,-0.35 -19.25,-1 -4.25,-0.9 -5,-1.05 -4.35,-0.75 0.3,0.15 0.6,0.6 0.6,1 0,0.4 0.2,0.7 0.45,0.7 0.25,0 0.65,0.5 0.85,1.1 0.15,0.6 0.5,1.3 0.75,1.6 0.95,1.15 3.25,4.25 3.95,5.35 0.4,0.65 3.1,3.6 5.95,6.55 6.05,6.25 11.35,10 20.3,14.4 9.45,4.6 10.2,4.9 16.8,6.5 3.4,0.85 7.35,1.85 8.7,2.25 2.65,0.7 11.55,2.15 15.25,2.4 1.25,0.1 2.55,0.2 2.9,0.25 0.3,0.05 0.6,-0.05 0.6,-0.2 z"
       id="path22" />
    <path
       d="m 343.5,725.95 c -8.1,-1.45 -20.6,-4.45 -22.75,-5.45 -0.55,-0.25 -2.4,-0.85 -4.1,-1.3 -1.75,-0.45 -3.15,-1 -3.15,-1.2 0,-0.2 -0.75,-0.5 -1.7,-0.65 -2.7,-0.45 -17.3,-7.4 -18.25,-8.7 -0.15,-0.2 -1.85,-1.2 -3.7,-2.15 -1.85,-0.95 -3.8,-2.05 -4.25,-2.5 -0.45,-0.4 -1.5,-1.1 -2.3,-1.5 -2.55,-1.3 -10.55,-7.75 -11.05,-8.9 -0.25,-0.6 -0.85,-1.1 -1.35,-1.1 -0.45,0 -1.25,-0.55 -1.8,-1.25 -0.55,-0.7 -1.2,-1.25 -1.45,-1.25 -0.25,0 -4.1,-3.5 -8.55,-7.8 -6.05,-5.8 -8.1,-8.1 -8.1,-9 0,-0.85 -0.3,-1.2 -0.9,-1.2 -0.85,0 -2.6,-1.4 -2.6,-2.05 0,-0.15 -1.1,-1.45 -2.45,-2.85 -1.3,-1.45 -2.7,-3.25 -3.1,-4 -0.4,-0.75 -1,-1.55 -1.3,-1.75 -0.35,-0.2 -0.65,-0.75 -0.65,-1.1 0,-0.4 -0.2,-0.75 -0.4,-0.75 -0.75,0 -7.95,-10.55 -8.4,-12.35 -0.2,-0.65 -0.5,-1.15 -0.75,-1.15 -0.25,0 -0.45,-0.2 -0.45,-0.45 0,-0.3 -0.55,-1.1 -1.2,-1.8 -0.7,-0.75 -1.4,-2 -1.55,-2.8 -0.2,-0.8 -0.5,-1.45 -0.75,-1.45 -0.25,0 -0.6,-0.45 -0.75,-1 -0.45,-1.45 -1.75,-1.25 -1.75,0.25 0,0.7 -0.2,1.65 -0.45,2.15 -0.25,0.45 -0.6,1.25 -0.75,1.75 -0.2,0.6 -0.8,0.85 -2.3,0.85 -2,0 -2,0 -2,-1.95 0,-1.1 0.2,-2.15 0.5,-2.3 0.3,-0.15 0.5,-0.75 0.5,-1.3 0,-0.55 0.35,-1.1 0.75,-1.25 0.4,-0.2 0.75,-0.95 0.75,-1.7 0,-1.8 0.1,-1.85 3.85,-2.25 l 3,-0.35 0.9,2.3 c 0.5,1.25 1.1,2.3 1.3,2.3 0.25,0 0.45,0.35 0.45,0.75 0,0.4 0.25,0.75 0.5,0.75 0.3,0 0.5,0.45 0.5,1 0,0.55 0.25,1 0.5,1 0.3,0 0.5,0.35 0.5,0.75 0,0.4 0.25,0.75 0.5,0.75 0.3,0 0.5,0.25 0.5,0.5 0,0.3 0.55,1.15 1.2,1.85 0.65,0.7 1.6,2.2 2.1,3.35 0.5,1.15 1.2,2.25 1.55,2.45 0.35,0.2 0.65,0.6 0.65,0.85 0,0.25 0.5,1 1.15,1.7 0.6,0.65 1.45,1.85 1.85,2.65 0.4,0.75 1.05,1.6 1.35,1.8 0.35,0.2 0.65,0.75 0.65,1.1 0,0.4 0.25,0.75 0.5,0.75 0.3,0 0.65,0.3 0.8,0.7 0.15,0.4 1.25,1.8 2.5,3.1 1.2,1.35 2.2,2.65 2.2,2.85 0,0.25 0.55,0.9 1.25,1.45 0.7,0.55 1.25,1.5 1.25,2.2 0,0.8 0.3,1.2 0.9,1.2 0.45,0.05 4.6,3.7 9.2,8.15 4.6,4.45 8.75,8.35 9.25,8.65 0.5,0.3 1.1,1 1.4,1.6 0.25,0.6 0.8,1.1 1.15,1.1 0.4,0 1.85,1 3.25,2.15 1.45,1.2 4.1,3.25 6,4.55 1.85,1.3 3.35,2.6 3.35,2.85 0,0.25 0.4,0.45 0.9,0.45 0.45,0 1.85,0.7 3.1,1.5 1.25,0.8 2.55,1.5 2.85,1.5 0.35,0 0.9,0.45 1.25,1 0.35,0.55 0.9,1 1.2,1 0.35,0 2.9,1.2 5.75,2.7 2.85,1.45 7.1,3.4 9.45,4.35 2.35,0.9 4.35,1.85 4.4,2.05 0.1,0.2 0.7,0.4 1.35,0.4 0.65,0 3.5,0.8 6.35,1.8 2.85,1 6.15,2 7.4,2.25 1.25,0.2 3.25,0.65 4.5,0.9 1.25,0.3 3.9,0.85 5.9,1.25 l 3.6,0.65 -1.3,-2.3 c -0.7,-1.25 -1.4,-3.5 -1.55,-4.9 l -0.3,-2.65 h 2 2 l 2.15,4.4 c 1.15,2.4 2.65,5.05 3.3,5.95 0.75,0.95 1.2,2.25 1.2,3.35 0,1.75 -0.05,1.8 -1.85,1.75 -1.05,0 -4.25,-0.45 -7.15,-1 z"
       id="path23" />
    <path
       d="m 340.35,709.65 c -0.2,-0.15 -0.35,-1.2 -0.35,-2.25 0,-1.35 -0.2,-1.9 -0.75,-1.9 -0.45,0 -0.75,-0.45 -0.75,-1.1 0,-0.65 -0.15,-2.35 -0.3,-3.75 L 337.85,698 h 1.85 c 1.75,0 1.8,0.05 1.8,1.75 0,1.1 0.25,1.75 0.65,1.75 0.8,0 2.35,4.65 2.35,6.9 0,1.5 -0.1,1.6 -1.9,1.6 -1.05,0 -2.1,-0.15 -2.25,-0.35 z"
       id="path24" />
    <path
       d="m 337,694.75 c 0,-1.65 0.1,-1.75 1.75,-1.75 1.65,0 1.75,0.1 1.75,1.75 0,1.65 -0.1,1.75 -1.75,1.75 -1.65,0 -1.75,-0.1 -1.75,-1.75 z"
       id="path25" />
    <path
       d="m 336,688.75 v -2.25 h 2.25 2.25 v 2.25 2.25 H 338.25 336 Z"
       id="path26" />
    <path
       d="m 213.4,686.1 c -0.9,-0.75 -3,-2.4 -4.65,-3.6 -1.65,-1.25 -3.65,-2.8 -4.5,-3.5 -2.55,-2.1 -10.25,-9.65 -10.25,-10.05 0,-0.2 -1,-1.35 -2.15,-2.55 -3.5,-3.45 -9.85,-12.25 -9.85,-13.6 0,-0.35 -0.3,-0.8 -0.7,-0.95 -0.35,-0.15 -0.8,-0.9 -1,-1.6 -0.2,-0.75 -0.7,-1.7 -1.05,-2.1 -0.4,-0.4 -0.75,-1.5 -0.75,-2.45 0,-1.1 -0.25,-1.7 -0.7,-1.7 -0.8,0 -2.3,-3.45 -2.3,-5.25 0,-0.7 -0.2,-1.25 -0.5,-1.25 -0.25,0 -0.5,-0.9 -0.5,-2 0,-1.95 0.05,-2 1.75,-2 1.6,0 1.75,0.15 1.75,1.45 0,0.8 0.15,1.55 0.4,1.65 0.6,0.25 2.1,3.9 2.1,5.15 0,0.8 0.3,1.25 0.75,1.25 0.45,0 0.9,0.6 1.1,1.5 0.15,0.85 0.45,1.5 0.65,1.5 0.2,0 0.7,0.75 1.05,1.65 0.35,0.85 0.95,1.9 1.3,2.25 0.35,0.35 0.65,0.95 0.65,1.35 0,0.35 0.2,0.75 0.4,0.85 0.45,0.15 6.1,7.75 6.1,8.15 0,0.15 0.85,1.1 1.95,2.15 1.05,1 2,2.1 2.1,2.35 0.25,0.55 6.65,6.6 9.95,9.35 1.25,1 2.95,2.45 3.75,3.15 0.85,0.7 1.95,1.55 2.45,1.85 0.85,0.45 0.9,0.4 0.6,-0.65 -0.2,-0.65 -0.45,-3.6 -0.6,-6.6 -0.25,-4.65 -0.15,-5.4 0.55,-5.65 0.65,-0.25 0.75,-0.75 0.5,-2.3 -0.2,-1.1 -0.2,-4 0,-6.5 0.3,-3.4 0.6,-4.75 1.3,-5.45 0.55,-0.55 0.95,-1.15 0.95,-1.45 0,-0.25 0.8,-0.5 1.75,-0.5 1.6,0 1.75,0.15 1.75,1.4 0,0.75 -0.35,2.95 -0.75,4.85 -1.2,5.4 -1.75,14.65 -1.2,19.65 0.25,2.4 0.6,6 0.75,8 l 0.35,3.6 h -1.8 c -1.25,0 -2.3,-0.45 -3.45,-1.4 z"
       id="path27" />
    <path
       d="m 173,630.8 c 0,-1.3 -0.25,-2.3 -0.6,-2.4 -0.8,-0.3 -1.3,-23.4 -0.5,-23.4 0.3,0 0.4,-0.45 0.25,-1 -1,-3.85 3.75,-23.95 8.05,-34.25 0.35,-0.8 1.15,-2.9 1.8,-4.6 0.6,-1.75 1.3,-3.15 1.55,-3.15 0.25,0 0.45,-0.55 0.45,-1.25 0,-0.7 0.25,-1.25 0.5,-1.25 0.3,0 0.5,-0.45 0.5,-1 0,-0.55 0.25,-1 0.5,-1 0.3,0 0.5,-0.45 0.5,-1.05 0,-0.55 0.55,-2.25 1.25,-3.75 0.7,-1.5 1.25,-2.85 1.25,-2.95 0,-0.15 0.5,-1.35 1.05,-2.65 0.6,-1.3 1.4,-3.15 1.8,-4.1 1.05,-2.55 1.85,-4.2 2.2,-4.5 0.3,-0.3 1.45,-5.2 1.2,-5.4 -0.1,-0.1 -2.5,0.95 -5.35,2.3 -5.85,2.85 -15.4,6.2 -20.9,7.3 -2.3,0.5 -6.35,0.8 -10.35,0.8 h -6.65 v -2.25 c 0,-1.25 0.2,-2.25 0.5,-2.25 0.25,0 1.25,-0.65 2.15,-1.5 1.15,-1 2.25,-1.5 3.3,-1.5 1.4,0 1.55,0.15 1.55,1.55 0,1.4 0.1,1.5 1.4,1.25 0.75,-0.1 2.5,-0.35 3.85,-0.55 2.8,-0.35 8.65,-1.95 11.15,-3.05 0.9,-0.4 2.75,-1 4.1,-1.35 1.4,-0.3 2.5,-0.75 2.5,-0.95 0,-0.25 0.4,-0.4 0.95,-0.4 0.5,0 1.5,-0.45 2.2,-1 0.7,-0.55 1.65,-1 2.2,-1 0.5,0 1.55,-0.55 2.35,-1.25 1.55,-1.3 4.15,-2.25 6.45,-2.25 1.1,0 1.35,0.2 1.35,1.25 0,0.9 0.25,1.25 1,1.25 1.15,0 1.2,0.65 0.5,5.4 -0.3,2.2 -0.75,3.45 -1.45,4.05 -0.65,0.55 -1.05,1.5 -1.05,2.45 0,1.8 -0.85,3.9 -2.1,5.3 -0.5,0.55 -0.9,1.5 -0.9,2.1 0,1.3 -0.95,3.65 -1.85,4.6 -0.35,0.35 -0.65,1.2 -0.65,1.9 0,0.65 -0.2,1.2 -0.5,1.2 -0.25,0 -0.5,0.55 -0.5,1.25 0,0.7 -0.2,1.25 -0.5,1.25 -0.25,0 -0.5,0.45 -0.5,1 0,0.5 -0.55,1.5 -1.25,2.2 -0.85,0.85 -1.25,1.8 -1.25,3.05 0,0.95 -0.2,1.75 -0.5,1.75 -0.25,0 -0.5,0.55 -0.5,1.25 0,0.7 -0.2,1.25 -0.5,1.25 -0.25,0 -0.65,0.9 -0.8,2.05 -0.2,1.1 -0.65,2.35 -1.05,2.75 -0.4,0.4 -0.85,1.6 -1,2.7 -0.15,1.1 -0.45,2 -0.65,2 -0.2,0 -0.5,0.95 -0.65,2.1 -0.15,1.2 -0.55,2.2 -0.8,2.3 -0.3,0.1 -0.55,0.9 -0.55,1.75 -0.05,0.9 -0.45,2.5 -1,3.6 -0.55,1.1 -0.95,2.65 -1,3.45 0,2.7 -1.2,10.3 -1.55,10.3 -0.25,0 -0.25,1.15 -0.1,2.5 0.15,1.4 0.1,2.5 -0.15,2.5 -0.25,0 -0.45,3.25 -0.45,7.25 0,4 0.2,7.25 0.45,7.25 0.2,0 0.3,0.9 0.2,2 -0.1,1.1 0,2 0.2,2 0.25,0 0.4,1.6 0.4,3.5 v 3.5 h -1.75 C 173,633 173,633 173,630.8 Z"
       id="path28" />
    <path
       d="m 519.3,597.7 c -9.35,-2.25 -15.25,-8.45 -17.8,-18.6 -0.9,-3.55 -1,-5.8 -1,-29.1 0,-28.65 0.25,-31.25 3.25,-37.3 3.75,-7.35 9.4,-11.25 18.35,-12.55 10.7,-1.6 19.8,0.65 25,6.25 4.7,5 7.4,12.75 7.4,21.15 v 4.8 l -3.1,0.35 c -1.75,0.15 -6.45,0.45 -10.45,0.65 l -7.35,0.3 -0.15,-3.7 c -0.25,-4.4 -1.55,-7.25 -3.9,-8.65 -1.55,-0.9 -1.65,-0.9 -3.4,0 -1.3,0.7 -2.15,1.7 -3.1,3.7 l -1.3,2.75 -0.15,19.25 c -0.2,22.65 0.1,25.6 2.8,28.6 1.35,1.5 2.1,1.9 3.45,1.9 3.2,0 5.65,-4.15 5.65,-9.6 v -1.55 l 7.15,0.35 c 3.9,0.2 8.6,0.45 10.5,0.65 l 3.35,0.3 v 3.85 c 0,13.15 -7.8,24.1 -18.9,26.45 -3.65,0.75 -12.7,0.6 -16.3,-0.25 z"
       id="path29" />
    <path
       d="m 667.3,597.7 c -7.1,-1.7 -12.6,-6.1 -15.7,-12.4 -3.45,-7.05 -3.35,-6.2 -3.35,-36.3 0,-29.7 0,-29.9 2.9,-35.95 1.85,-3.85 6.55,-8.85 9.85,-10.4 4.95,-2.3 5.45,-2.4 15,-2.4 h 9.25 l 3.4,1.65 c 8.9,4.25 13.85,13.65 13.85,26.35 v 4.05 l -6.35,0.6 c -3.55,0.35 -8.25,0.6 -10.45,0.6 h -4.05 l -0.25,-3.4 c -0.35,-4.65 -1.85,-7.9 -4.15,-8.9 -1.55,-0.65 -1.95,-0.65 -3.2,0 -2.05,1.1 -3.45,3.8 -4.1,7.85 -0.35,2.2 -0.45,10.55 -0.35,22.85 0.15,17.15 0.25,19.55 1.05,21.35 2.15,4.8 5.35,5.85 8.25,2.75 1.25,-1.4 2.6,-5.35 2.6,-7.8 v -1.85 l 5.9,0.35 c 3.2,0.15 8.05,0.45 10.8,0.65 l 4.95,0.3 -0.35,4.55 c -0.15,2.5 -0.55,5.45 -0.85,6.55 -2.7,10.4 -9.1,17.1 -18.1,19.05 -4,0.85 -12.8,0.8 -16.55,-0.1 z"
       id="path30" />
    <path
       d="m 752.95,597.15 -9.8,-0.15 -1.75,-4.65 c -1,-2.5 -2.75,-7.05 -3.85,-10.1 -2.1,-5.55 -3.4,-8.8 -6.9,-17 l -1.9,-4.5 -0.15,18.15 -0.1,18.1 H 717.75 707 v -48 -48 h 10.75 10.75 l 0.1,16.3 0.15,16.25 1.45,-3.4 c 0.75,-1.85 1.7,-4.05 2.05,-4.9 0.35,-0.8 2.35,-5.55 4.4,-10.5 2.05,-4.95 4.2,-10.05 4.8,-11.35 l 1,-2.4 h 10.8 10.75 v 1.7 c 0,1.55 -0.95,3.9 -5.4,13.3 -0.95,2.05 -2.35,5.1 -3.1,6.75 -1.85,4.05 -4.3,9.2 -7.9,16.85 l -3,6.35 3,6.65 c 1.65,3.65 4.2,9.45 5.75,12.9 3.1,7.05 7.8,17.75 9.2,20.75 2.8,6.25 3.45,8.05 3.45,9.55 0,1.6 -0.1,1.7 -1.6,1.6 -0.9,-0.1 -6.05,-0.2 -11.45,-0.25 z"
       id="path31" />
    <path
       d="m 821.5,549 v -48.65 l 3.05,0.35 c 1.7,0.15 6.2,0.3 10,0.3 4.05,0 6.95,0.2 6.95,0.45 0,0.75 16.05,40.25 17.3,42.55 0.8,1.55 0.75,3 0.7,-23.35 L 859.45,501 h 10.5 10.55 v 48 48 h -9.85 -9.9 l -5.2,-13.15 c -2.9,-7.2 -7.1,-17.6 -9.35,-23.1 l -4.15,-10 L 842,573.9 V 597 h -7.2 c -3.9,0 -8.55,0.15 -10.25,0.3 l -3.05,0.35 z"
       id="path32" />
    <path
       d="m 558.5,549 v -48 h 10.75 10.8 L 580,512.65 c -0.05,6.35 -0.05,14.8 -0.05,18.75 l 0.05,7.1 h 6.25 6.25 V 519.75 501 h 10.5 10.5 v 48 48 H 603 592.5 V 578 559 H 586.25 580 v 19 19 H 569.25 558.5 Z"
       id="path33" />
    <path
       d="m 620.7,549.15 0.05,-47.9 10.9,-0.15 10.85,-0.1 -0.1,47.85 -0.15,47.9 -10.8,0.15 -10.85,0.1 z"
       id="path34" />
    <path
       d="m 768.95,556.4 c -0.05,-22.35 -0.1,-43.9 -0.15,-47.9 l -0.05,-7.25 22.9,-0.15 22.85,-0.1 v 10.75 10.75 h -12 -12 v 8.8 8.85 l 10.6,-0.2 10.65,-0.2 v 9.75 9.75 l -10.65,-0.2 -10.6,-0.15 v 8.55 8.55 h 12.4 12.35 V 586.5 597 H 792.15 769 Z"
       id="path35" />
    <path
       d="m 161.6,532.15 c 0.1,-1.4 0.45,-2.05 1.3,-2.4 0.6,-0.25 1.1,-0.65 1.1,-0.9 0,-0.6 1.3,-1.85 1.95,-1.85 0.25,0 0.55,-0.5 0.65,-1.1 0.1,-0.95 0.5,-1.2 2.05,-1.3 1.85,-0.15 1.85,-0.15 1.85,1.65 0,1.4 -0.25,1.9 -1,2.1 -0.55,0.15 -1,0.6 -1,1 0,0.8 -1.15,2.15 -1.85,2.15 -0.25,0 -0.65,0.5 -0.9,1.15 -0.35,0.8 -1,1.15 -2.4,1.25 l -1.9,0.15 z"
       id="path36" />
    <path
       d="m 365.75,447.75 c -12.25,-2 -22.5,-9.05 -29.8,-20.5 -1.7,-2.6 -3.75,-7.8 -4.8,-12.05 -1,-4.2 -1.15,-14.95 -0.2,-19.7 2.3,-11.9 11.05,-23.75 21.35,-28.9 10.1,-5.1 23.9,-5.5 35.2,-1 10.7,4.25 20.85,14.5 23.8,24.1 1.85,6.05 2.15,8.2 2.2,15.85 0,8.5 -0.7,12.5 -3.3,18.2 -5.95,13.2 -17.05,21.7 -31.2,24.05 -5.05,0.8 -7.9,0.8 -13.25,-0.05 z m 20.9,-20.25 c 4.05,-1.25 8.55,-4.5 11,-7.95 1,-1.4 1.85,-2.65 1.85,-2.8 0,-0.15 0.45,-1.2 0.95,-2.4 1.55,-3.4 2,-5.2 2.35,-9.15 l 0.35,-3.75 -1.35,0.55 c -3.8,1.4 -9.55,0.2 -12.15,-2.6 -3,-3.2 -4.1,-10.1 -2.4,-14.95 0.85,-2.4 0.65,-2.7 -2.15,-3.25 -6.15,-1.2 -13.2,2.7 -17.3,9.5 -2.7,4.5 -3.5,7.7 -3.5,14.05 0,4.75 0.15,5.95 1.35,8.9 3,7.6 7.75,12.3 14.35,14.15 3.05,0.85 2.95,0.85 6.65,-0.3 z"
       id="path37" />
    <path
       d="m 423.65,423.9 c 0.1,-1.2 0.6,-4.05 1.05,-6.4 0.95,-4.95 1.2,-18.3 0.35,-21 -0.3,-0.95 -0.55,-2.6 -0.55,-3.6 0,-1.85 0.05,-1.9 1.75,-1.9 0.95,0 2.9,0.5 4.35,1.05 3.2,1.3 8.7,2.4 12.3,2.4 l 2.6,0.05 v 1.8 c 0,1 -0.4,2.4 -0.9,3.1 -0.55,0.75 -1.6,2.6 -2.4,4.1 -2.85,5.55 -8.9,15.35 -11.65,18.9 -2.7,3.5 -2.85,3.6 -4.95,3.6 h -2.2 z"
       id="path38" />
  </g>
  <g
     fill="#d7d2cc"
     id="g6691"
     style="display:inline">
    <path
       d="m 452,728 c 0,-0.25 -0.65,-0.35 -1.5,-0.15 -0.9,0.15 -3.9,-0.3 -7.5,-1.15 -5.2,-1.2 -6,-1.55 -6.05,-2.45 0,-0.55 -0.15,-0.7 -0.3,-0.35 -0.1,0.3 -0.95,0.6 -1.8,0.6 -1.2,0 -1.75,-0.3 -2.15,-1.2 -0.45,-0.95 -0.4,-1.15 0.25,-1 0.7,0.15 14.1,3.45 16.05,3.95 0.4,0.1 2.2,0.65 4,1.2 l 3.25,0.95 -2.1,0.05 C 452.95,728.5 452,728.3 452,728 Z"
       id="path1863" />
    <path
       d="m 453.5,726.4 c 0,-0.65 -13.4,-4.45 -16.1,-4.5 -0.8,-0.05 -1.55,-0.25 -1.7,-0.5 -0.15,-0.2 -0.5,-0.3 -0.75,-0.1 -0.25,0.15 -0.75,0.05 -1.1,-0.2 -0.7,-0.6 -4.25,-1.35 -5.45,-1.15 -0.45,0.05 -0.95,-0.15 -1.15,-0.45 -0.15,-0.3 -0.55,-0.4 -0.8,-0.2 -0.25,0.15 -0.85,0 -1.25,-0.35 -0.4,-0.3 -0.85,-0.45 -1.05,-0.3 -0.15,0.2 -0.55,0.15 -0.85,-0.1 -0.35,-0.3 -1.25,-0.65 -2.05,-0.8 -2.4,-0.5 -2.45,-0.5 -3.15,-0.95 -0.35,-0.2 -0.8,-0.25 -0.95,-0.1 -0.15,0.15 -0.95,-0.1 -1.75,-0.5 -0.8,-0.45 -1.8,-0.65 -2.15,-0.55 -0.35,0.15 -0.9,0 -1.2,-0.3 -0.3,-0.3 -0.55,-0.35 -0.55,-0.15 0,0.25 -0.3,0.2 -0.6,-0.1 -0.6,-0.45 -4.55,-1.75 -5.65,-1.85 -0.25,0 -0.8,-0.2 -1.1,-0.4 -0.35,-0.25 -0.65,-0.3 -0.65,-0.15 0,0.15 -0.6,-0.05 -1.35,-0.45 -0.75,-0.4 -1.5,-0.6 -1.75,-0.45 -0.25,0.15 -0.7,0.05 -1.05,-0.2 -0.5,-0.4 -9.75,-3.6 -11.1,-3.8 -0.25,-0.05 -1,-0.35 -1.6,-0.7 -0.6,-0.35 -1.5,-0.65 -2,-0.75 -0.5,-0.05 -1.2,-0.3 -1.5,-0.5 -0.7,-0.45 -1.65,-0.05 -1.65,0.6 0,0.2 0.6,0.6 1.4,0.9 1.25,0.5 1.15,0.55 -1.25,0.6 C 379.3,708 379,707.9 379,707 c 0,-0.85 -0.35,-1 -2.25,-1 -1.9,0 -2.25,-0.15 -2.25,-1 0,-0.85 -0.35,-1 -2.25,-1 -1.65,0 -2.25,-0.2 -2.25,-0.75 0,-0.5 -0.55,-0.75 -1.75,-0.75 -0.95,0 -1.75,-0.2 -1.75,-0.5 0,-0.25 -0.35,-0.5 -0.75,-0.5 -0.4,0 -0.75,-0.35 -0.75,-0.75 0,-0.5 -0.5,-0.75 -1.5,-0.75 -1,0 -1.5,-0.25 -1.5,-0.75 0,-0.45 -0.45,-0.75 -1.25,-0.75 -0.7,0 -1.25,-0.2 -1.25,-0.5 0,-0.25 -0.4,-0.5 -0.85,-0.5 -1.1,-0.05 -2.65,-1.15 -2.65,-1.95 0,-0.3 -0.55,-0.55 -1.25,-0.55 -0.7,0 -1.4,-0.35 -1.55,-0.75 -0.2,-0.4 -0.6,-0.75 -1,-0.75 -0.4,0 -0.7,-0.2 -0.7,-0.45 0,-0.25 -0.55,-0.6 -1.25,-0.75 -0.7,-0.2 -1.25,-0.55 -1.25,-0.8 0,-0.3 -0.35,-0.5 -0.75,-0.5 -0.45,0 -0.9,-0.35 -1.05,-0.75 -0.2,-0.4 -0.6,-0.75 -1,-0.75 -0.4,0 -0.7,-0.2 -0.7,-0.5 0,-0.25 -0.3,-0.5 -0.7,-0.5 -0.35,0 -0.8,-0.7 -1,-1.55 -0.3,-1.55 -0.35,-1.55 -2.55,-1.25 l -2.25,0.35 v -1.75 c 0,-2.15 0.75,-2.7 2.05,-1.5 0.5,0.45 1.1,0.7 1.35,0.5 0.55,-0.6 -1.9,-2.3 -3.35,-2.3 -1,0 -1.15,0.1 -0.55,0.5 0.65,0.4 0.65,0.5 -0.05,0.5 -0.5,0 -0.95,0.55 -1.1,1.4 -0.4,2.1 0.15,9.8 0.7,10.15 0.3,0.2 0.4,0.8 0.2,1.4 -0.2,0.65 -0.1,1.05 0.25,1.05 0.3,0 0.4,0.5 0.2,1.25 -0.2,0.8 -0.1,1.25 0.3,1.25 0.4,0 0.5,0.45 0.3,1.25 -0.2,0.7 -0.1,1.25 0.1,1.25 0.25,0 0.35,0.55 0.25,1.15 -0.15,0.7 0.1,1.55 0.6,2.05 0.45,0.45 0.7,1.15 0.55,1.55 -0.15,0.4 -0.05,0.75 0.2,0.75 0.25,0 0.35,0.35 0.2,0.75 -0.2,0.4 -0.05,0.75 0.3,0.75 0.3,0 0.4,0.25 0.25,0.5 -0.15,0.3 -0.05,0.5 0.25,0.5 0.35,0 0.5,0.35 0.3,0.75 -0.15,0.4 -0.05,0.75 0.25,0.75 0.3,0 0.45,0.35 0.25,0.75 -0.15,0.4 -0.05,0.75 0.2,0.75 0.3,0 0.5,0.65 0.5,1.5 0,1.3 2,5.75 3.6,8.1 0.35,0.45 0.5,1 0.3,1.15 -0.15,0.2 -2.3,0 -4.7,-0.45 -2.4,-0.4 -4.6,-0.65 -4.8,-0.5 -0.25,0.15 -0.75,0 -1.15,-0.3 -0.4,-0.35 -1.05,-0.5 -1.5,-0.35 -0.4,0.2 -0.85,0.1 -0.95,-0.1 -0.3,-0.5 -3.9,-1.5 -6.05,-1.7 -0.8,-0.1 -1.95,-0.4 -2.55,-0.75 -0.55,-0.3 -1.55,-0.6 -2.25,-0.7 -0.65,-0.1 -1.7,-0.45 -2.3,-0.8 -0.6,-0.35 -1.3,-0.55 -1.5,-0.55 -0.2,0.05 -1.05,-0.15 -1.8,-0.45 -0.8,-0.35 -1.65,-0.45 -1.95,-0.3 -0.3,0.2 -0.65,0.1 -0.85,-0.25 -0.2,-0.3 -2.95,-1.6 -6.1,-2.85 -6.95,-2.8 -7.5,-3.05 -10.9,-5.05 -1.45,-0.9 -2.85,-1.5 -3.05,-1.4 -0.25,0.15 -0.5,-0.05 -0.65,-0.45 -0.3,-0.75 -7.3,-4.65 -7.95,-4.45 -0.25,0.1 -0.4,-0.05 -0.4,-0.3 0,-0.25 -1.75,-1.7 -3.9,-3.25 -2.15,-1.5 -6.55,-5 -9.75,-7.8 -3.25,-2.75 -5.85,-4.95 -5.85,-4.8 0,0.35 -14.15,-14.2 -16.3,-16.75 -5.25,-6.3 -11.65,-14.9 -15.35,-20.65 -4.3,-6.7 -5.6,-8.8 -7.25,-12.05 -0.95,-1.9 -1.85,-3.2 -1.95,-2.85 -0.3,0.8 2.9,7 5.9,11.5 0.8,1.2 1.45,2.25 1.45,2.4 0,0.3 4.05,6.2 8.1,11.8 6.85,9.45 18.55,21.95 28.15,30.15 1.6,1.4 3.7,3.25 4.7,4.2 3.55,3.3 12.8,9.8 17.85,12.5 1.1,0.6 3.1,1.7 4.45,2.55 2.15,1.3 7.2,3.85 11.15,5.65 1.6,0.75 1.35,1.35 -0.65,1.35 -1.4,0 -1.75,-0.2 -1.75,-1 0,-0.85 -0.35,-1 -2.25,-1 -1.9,0 -2.25,-0.15 -2.25,-1 0,-0.85 -0.35,-1 -2,-1 -1.1,0 -2,-0.2 -2,-0.5 0,-0.25 -0.35,-0.5 -0.75,-0.5 -0.4,0 -0.75,-0.45 -0.75,-1 0,-0.75 -0.35,-1 -1.5,-1 -1.85,0 -4,-0.95 -4,-1.85 0,-0.35 -0.55,-0.65 -1.25,-0.65 -0.7,0 -1.25,-0.2 -1.25,-0.5 0,-0.25 -0.35,-0.5 -0.75,-0.5 -0.4,0 -0.75,-0.3 -0.75,-0.65 0,-1.15 -10.5,-9.15 -12.45,-9.45 -1.15,-0.15 -1.7,-0.75 -2.25,-2.5 -0.15,-0.55 -0.75,-0.9 -1.55,-0.9 -0.9,0 -1.25,-0.25 -1.25,-0.9 0,-1.15 -2,-3.1 -3.15,-3.1 -1.1,0 -3.35,-2 -3.35,-2.95 0,-1.05 -9.5,-10.55 -10.55,-10.55 -1.1,0 -1.95,-1 -1.95,-2.3 0,-0.8 -0.35,-1.2 -1.1,-1.3 -0.85,-0.1 -1.2,-0.6 -1.4,-1.65 -0.2,-1.05 -0.55,-1.55 -1.4,-1.65 -0.8,-0.15 -1.1,-0.5 -1.1,-1.4 0,-0.85 -0.25,-1.2 -1,-1.2 -0.65,0 -1,-0.35 -1,-1 0,-0.55 -0.35,-1 -0.75,-1 -0.4,0 -0.75,-0.45 -0.75,-1 0,-0.55 -0.35,-1 -0.75,-1 -0.4,0 -0.75,-0.35 -0.75,-0.75 0,-0.4 -0.2,-0.75 -0.5,-0.75 -0.25,0 -0.5,-0.35 -0.5,-0.75 0,-0.4 -0.2,-0.75 -0.5,-0.75 -0.25,0 -0.5,-0.5 -0.5,-1.1 0,-0.65 -0.9,-2.5 -2,-4.15 -1.1,-1.65 -2,-3.15 -2,-3.35 0,-0.25 -0.45,-0.4 -1,-0.4 -0.7,0 -1,-0.35 -1,-1.1 0,-1.45 -2.4,-5.4 -3.25,-5.4 -0.5,0 -0.75,-0.5 -0.75,-1.5 0,-0.95 -0.3,-1.65 -0.8,-1.85 -0.95,-0.35 -2.7,1.45 -2.7,2.85 0,0.55 -0.2,1 -0.5,1 -0.25,0 -0.5,0.55 -0.5,1.25 0,0.7 -0.2,1.25 -0.45,1.25 -0.25,0 -0.55,0.75 -0.7,1.65 -0.15,0.85 -0.7,3.3 -1.3,5.35 -0.55,2.05 -1.3,5.4 -1.6,7.4 -0.35,2.15 -0.85,3.6 -1.2,3.6 -0.45,0 -0.5,0.65 -0.2,2.4 0.65,3.95 0.55,12.5 -0.15,12.75 -0.4,0.15 -0.3,0.3 0.25,0.3 0.7,0.05 0.85,0.5 0.85,2.55 0,1.9 -0.2,2.5 -0.75,2.5 -0.4,0 -0.8,-0.3 -0.8,-0.6 -0.05,-0.35 -0.15,-1.2 -0.25,-1.9 -0.45,-3.5 -0.55,-11.85 -0.2,-16.5 0.7,-8.85 2.3,-15.45 5.8,-24 2.4,-5.75 2.55,-6.5 1.45,-6.5 -0.4,0 -0.6,0.3 -0.45,0.7 0.15,0.35 -0.1,1 -0.5,1.45 -0.4,0.4 -0.6,0.85 -0.45,1.05 0.2,0.15 0.05,0.3 -0.3,0.3 -0.35,0 -0.45,0.25 -0.3,0.5 0.15,0.3 0.1,0.5 -0.2,0.5 -0.3,0 -0.4,0.35 -0.25,0.75 0.2,0.4 0.05,0.75 -0.3,0.75 -0.3,0 -0.4,0.25 -0.25,0.5 0.15,0.3 0.1,0.5 -0.2,0.5 -0.3,0 -0.4,0.35 -0.25,0.75 0.2,0.4 0.1,0.75 -0.2,0.75 -0.25,0 -0.35,0.55 -0.2,1.25 0.15,0.85 -0.05,1.35 -0.6,1.55 -0.45,0.15 -0.65,0.5 -0.5,0.75 0.15,0.25 0,0.45 -0.3,0.45 -0.35,0 -0.45,0.4 -0.25,1 0.2,0.55 0.1,1 -0.2,1 -0.3,0 -0.4,0.35 -0.25,0.75 0.2,0.4 0.05,0.75 -0.3,0.75 -0.35,0 -0.45,0.4 -0.25,1 0.2,0.6 0.1,1 -0.25,1 -0.3,0 -0.4,0.25 -0.2,0.55 0.15,0.3 0.05,0.75 -0.3,0.95 -0.4,0.25 -0.7,1.45 -0.7,2.95 -0.05,1.4 -0.25,2.55 -0.45,2.55 -0.25,0 -0.25,1 -0.05,2.25 0.2,1.5 0.15,2.25 -0.25,2.25 -0.3,0 -0.55,0.35 -0.55,0.75 0,0.4 0.35,0.75 0.75,0.75 0.4,0 0.75,0.25 0.75,0.5 0,0.3 -0.35,0.5 -0.75,0.5 -0.55,0 -0.65,0.6 -0.45,3 0.2,1.8 0.1,3 -0.2,3 -0.6,0 -0.15,4.65 0.55,5.05 0.25,0.2 0.35,0.95 0.15,1.65 -0.2,0.75 -0.1,1.3 0.2,1.3 0.7,0 0.6,2.4 -0.1,2.65 -1.2,0.4 -8.15,-5.15 -15.7,-12.45 -2.3,-2.25 -4.3,-3.95 -4.45,-3.8 -0.15,0.15 -0.25,-0.1 -0.25,-0.5 0,-0.45 -0.35,-1.1 -0.8,-1.45 -1.1,-0.9 -7.55,-9.6 -9.6,-12.95 -3.65,-5.95 -7.85,-15.9 -8.65,-20.5 -1.4,-8.45 -1.55,-10.25 -1.3,-18.75 0.3,-9.3 0.9,-14.15 3.05,-24 0.5,-2.35 3.55,-11.45 5.6,-16.75 1.2,-3.15 2.2,-5.95 2.2,-6.15 0,-0.25 0.8,-2.05 1.7,-4 1.9,-3.9 3.3,-7.2 7.8,-18.1 2.15,-5.25 2.95,-7.9 3.2,-10.5 0.35,-3.85 -0.35,-3.6 -0.85,0.3 -0.35,2.45 -1.4,5.9 -2.85,9.2 -0.8,1.9 -1.5,3.7 -1.6,4.25 -0.05,0.15 -0.6,1.3 -1.25,2.55 -0.65,1.3 -1.15,2.5 -1.15,2.65 0,0.15 -0.65,1.75 -1.5,3.55 -0.8,1.8 -1.5,3.4 -1.5,3.55 0,0.15 -0.6,1.55 -1.3,3.1 -0.75,1.55 -1.85,4.3 -2.5,6.1 -0.7,1.8 -1.45,3.7 -1.65,4.25 -1.3,2.8 -3.5,9.4 -4.25,12.5 -0.5,1.95 -1.15,4.5 -1.55,5.75 -0.4,1.25 -0.8,3.05 -0.95,4 -0.1,0.95 -0.55,3.65 -0.9,6 -1,6.65 -0.85,24.35 0.25,28.9 2.75,11.3 7.65,21.65 14.6,30.65 3.9,5.05 11.75,13.5 15.75,16.9 3.2,2.75 3.85,3.25 8.5,6.65 l 2.25,1.65 -1.75,0.15 c -0.95,0.1 -1.8,-0.05 -1.9,-0.35 -0.1,-0.3 -0.5,-0.55 -0.9,-0.55 -0.4,0 -0.7,-0.2 -0.7,-0.5 0,-0.25 -0.25,-0.5 -0.55,-0.5 -0.75,0 -1.95,-1.3 -1.95,-2.15 0,-0.4 -1.25,-1.8 -2.8,-3.15 -1.55,-1.35 -4.3,-3.85 -6.05,-5.55 -1.8,-1.75 -3.65,-3.15 -4.1,-3.15 -1.1,0 -2.55,-1.55 -2.55,-2.7 0,-1.25 -2.6,-4.3 -3.65,-4.3 -0.55,0 -1.05,-0.45 -1.2,-1 -0.15,-0.55 -0.45,-1 -0.7,-1 -0.25,0 -0.45,-0.65 -0.45,-1.45 0,-0.8 -0.3,-1.7 -0.7,-2 -0.6,-0.55 -4.3,-6.65 -5.8,-9.65 -0.35,-0.8 -0.95,-1.4 -1.35,-1.4 -0.35,0 -0.65,-0.45 -0.65,-1 0,-0.55 -0.2,-1 -0.5,-1 -0.25,0 -0.5,-0.55 -0.5,-1.25 0,-0.7 -0.2,-1.25 -0.5,-1.25 -0.25,0 -0.5,-0.65 -0.5,-1.5 0,-0.8 -0.2,-1.5 -0.5,-1.5 -0.25,0 -0.5,-0.55 -0.5,-1.25 0,-0.7 -0.2,-1.25 -0.45,-1.25 -0.7,0 -1.65,-5.95 -1.3,-8.05 0.3,-1.6 0.2,-1.95 -0.45,-1.95 -0.6,0 -0.8,-0.5 -0.8,-2 0,-1.1 0.25,-2 0.5,-2 0.3,0 0.5,-0.65 0.5,-1.5 0,-1 -0.25,-1.5 -0.75,-1.5 -0.6,0 -0.75,-0.65 -0.75,-2.75 0,-2.1 0.15,-2.75 0.75,-2.75 0.55,0 0.75,-0.55 0.75,-2 0,-1.1 -0.2,-2 -0.5,-2 -0.25,0 -0.5,-1.25 -0.5,-2.75 0,-2.25 0.15,-2.75 0.9,-2.8 0.5,0 0.6,-0.15 0.25,-0.3 -0.8,-0.3 -0.8,-2.2 -0.1,-6.7 0.4,-2.35 0.8,-3.45 1.3,-3.45 0.5,0 0.6,-0.45 0.35,-1.75 -0.35,-2.05 0.6,-6.55 1.5,-6.9 0.85,-0.35 3.3,-8.2 3.3,-10.55 0,-1 0.2,-1.8 0.45,-1.8 0.25,0 0.55,-0.9 0.75,-2 0.2,-1.2 0.6,-2 1,-2 0.65,0 2.3,-3.6 2.3,-5.1 0,-0.45 0.25,-1 0.5,-1.15 0.3,-0.15 0.5,-0.95 0.5,-1.8 0,-0.85 0.25,-1.45 0.65,-1.45 0.75,0 1.85,-2.75 1.85,-4.65 0,-0.75 0.3,-1.35 0.65,-1.35 0.65,0 2.35,-3.7 2.35,-5.2 0,-1.6 1.15,-4.3 1.85,-4.3 0.4,0 0.65,-0.65 0.65,-1.75 0,-1.2 0.25,-1.75 0.75,-1.75 0.5,0 0.75,-0.5 0.75,-1.6 0.05,-2.6 1.4,-7.6 2.25,-8.2 0.95,-0.7 0.95,-1.7 0,-1.7 -0.4,0 -3.6,1.45 -7.1,3.2 -6.35,3.15 -8.2,3.9 -16.9,6.65 -2.45,0.75 -4.6,1.5 -4.75,1.65 -0.15,0.15 -1.25,0.3 -2.5,0.3 -1.25,0.05 -3.75,0.15 -5.65,0.25 -1.85,0.1 -3.35,0.15 -3.35,0.1 0,-0.05 3,-3.1 6.65,-6.75 10.6,-10.7 16.65,-19.2 24.7,-34.85 3.5,-6.85 4.5,-8.15 6.7,-9.05 0.8,-0.35 1.3,-0.8 1.15,-1.05 -0.15,-0.25 0.1,-0.45 0.55,-0.45 0.45,0 1.35,-0.55 2.05,-1.25 0.7,-0.7 1.55,-1.25 1.95,-1.25 0.4,0 0.75,-0.2 0.75,-0.5 0,-0.25 0.35,-0.5 0.75,-0.5 0.4,0 0.75,-0.2 0.75,-0.4 0,-0.25 0.55,-0.75 1.25,-1.1 0.65,-0.35 1.35,-1.05 1.55,-1.6 0.15,-0.5 0.7,-0.9 1.25,-0.9 0.5,0 1.35,-0.45 1.8,-1 0.5,-0.55 1.1,-1 1.4,-1 0.7,-0.05 3.25,-2.35 3.25,-3 0,-0.25 0.3,-0.5 0.65,-0.5 0.75,-0.05 3.85,-2.8 3.85,-3.5 0,-0.25 0.35,-0.5 0.75,-0.5 1,0 2.85,-1.9 2.5,-2.5 -0.2,-0.3 0.2,-0.7 0.9,-0.95 1.45,-0.55 6.45,-5.95 6.05,-6.6 -0.15,-0.25 0.05,-0.45 0.4,-0.45 0.75,0 4.4,-4.15 4.4,-4.95 0,-0.3 0.2,-0.55 0.5,-0.55 0.3,0 0.3,0.45 0.05,1.15 -0.25,0.6 -0.6,2.6 -0.75,4.5 -0.2,1.85 -0.6,3.35 -0.9,3.35 -0.3,0 -0.4,0.6 -0.25,1.5 0.2,0.85 0.15,1.5 -0.05,1.5 -0.2,0 -0.4,1.15 -0.45,2.55 0,1.45 -0.35,2.75 -0.65,2.95 -0.35,0.25 -0.5,0.85 -0.35,1.45 0.15,0.6 0.05,1.05 -0.25,1.05 -0.3,0 -0.4,0.65 -0.3,1.5 0.15,0.85 0.05,1.5 -0.2,1.5 -0.25,0 -0.3,0.45 -0.15,1 0.15,0.55 0.1,1 -0.15,1 -0.25,0 -0.35,0.55 -0.2,1.25 0.1,0.7 0,1.25 -0.3,1.25 -0.3,0 -0.4,0.45 -0.25,1 0.15,0.55 0.05,1 -0.25,1 -0.3,0 -0.4,0.45 -0.25,1 0.15,0.55 0,1 -0.3,1 -0.3,0 -0.4,0.55 -0.2,1.5 0.15,0.95 0.05,1.5 -0.25,1.5 -0.3,0 -0.45,0.35 -0.3,0.75 0.2,0.4 0.05,0.75 -0.25,0.75 -0.3,0 -0.4,0.35 -0.25,0.75 0.2,0.4 0.05,0.75 -0.3,0.75 -0.35,0 -0.45,0.4 -0.25,1 0.15,0.55 0.1,1 -0.15,1 -0.3,0 -0.4,0.45 -0.25,1 0.15,0.55 0.05,1 -0.25,1 -0.3,0 -0.4,0.45 -0.25,1 0.15,0.55 0,1 -0.3,1 -0.25,0 -0.4,0.35 -0.25,0.75 0.2,0.4 0.05,0.75 -0.3,0.75 -0.35,0 -0.5,0.35 -0.3,0.75 0.15,0.4 0.05,0.75 -0.25,0.75 -0.3,0 -0.4,0.2 -0.25,0.45 0.2,0.25 0.1,0.55 -0.2,0.65 -0.3,0.1 -0.55,1 -0.6,2.05 -0.05,1 -0.25,1.85 -0.5,1.85 -0.25,0 -0.3,0.2 -0.15,0.5 0.4,0.65 -0.75,4.5 -1.35,4.5 -0.25,0 -0.3,0.25 -0.15,0.5 0.15,0.3 0.05,0.5 -0.2,0.5 -0.3,0 -0.55,0.8 -0.55,1.75 0,0.95 -0.2,1.75 -0.45,1.75 -0.25,0 -0.35,0.4 -0.2,0.95 0.1,0.5 -0.1,1.2 -0.5,1.6 -0.35,0.4 -0.6,1 -0.45,1.35 0.1,0.3 -0.05,0.6 -0.35,0.6 -0.3,0 -0.4,0.35 -0.25,0.75 0.2,0.4 0.05,0.75 -0.3,0.75 -0.35,0 -0.45,0.4 -0.25,1 0.15,0.55 0.1,1 -0.2,1 -0.25,0 -0.4,0.55 -0.25,1.25 0.1,0.7 0,1.25 -0.3,1.25 -0.3,0 -0.4,0.25 -0.25,0.55 0.4,0.65 -0.7,4.95 -1.25,4.95 -0.25,0 -0.3,0.45 -0.15,1 0.15,0.55 0,1 -0.3,1 -0.35,0 -0.45,0.45 -0.25,1.25 0.15,0.7 0.1,1.25 -0.2,1.25 -0.3,0 -0.4,0.45 -0.25,1 0.15,0.55 0,1.3 -0.3,1.7 -0.3,0.35 -0.45,1.05 -0.25,1.5 0.2,0.45 0.05,0.8 -0.3,0.8 -0.45,0 -0.55,0.6 -0.35,2 0.15,1.1 0.1,2.1 -0.15,2.25 -0.5,0.3 -0.65,3.4 -0.7,13.15 0,10 0.15,13.05 0.8,13.4 0.25,0.15 0.4,0.9 0.35,1.6 -0.05,0.75 0.05,1.7 0.2,2.1 0.2,0.4 0.45,2 0.6,3.5 0.5,4.35 0.55,4.7 0.9,5.5 0.15,0.4 0.75,2.55 1.3,4.8 1.05,4.3 5.3,16.15 6.1,16.9 0.25,0.3 0.45,0.1 0.45,-0.6 0,-0.6 0.25,-1.1 0.55,-1.1 0.3,0 0.45,-0.35 0.25,-0.75 -0.15,-0.4 -0.05,-0.75 0.25,-0.75 0.3,0 0.45,-0.3 0.3,-0.7 -0.15,-0.4 0.05,-0.85 0.45,-1 0.45,-0.15 0.7,-0.7 0.6,-1.15 -0.1,-0.5 0.25,-1.3 0.75,-1.8 0.55,-0.55 0.85,-1.35 0.7,-1.85 -0.15,-0.55 0,-1.05 0.25,-1.1 0.65,-0.25 2.95,-5.9 2.6,-6.45 -0.15,-0.25 0,-0.45 0.3,-0.45 0.3,0 0.4,-0.2 0.25,-0.5 -0.15,-0.25 0,-0.5 0.4,-0.5 0.8,0 1.5,-1.35 1.05,-2.05 -0.15,-0.25 0,-0.45 0.35,-0.45 0.35,0 0.5,-0.15 0.3,-0.3 -0.15,-0.15 0.15,-0.7 0.7,-1.25 0.55,-0.55 0.85,-1.2 0.7,-1.45 -0.2,-0.3 -0.05,-0.5 0.25,-0.5 0.3,0 0.45,-0.2 0.3,-0.45 -0.15,-0.25 0.05,-0.6 0.5,-0.75 0.4,-0.15 0.6,-0.5 0.45,-0.8 -0.15,-0.25 0,-0.5 0.35,-0.5 0.8,0 2.05,-1.85 1.65,-2.5 -0.2,-0.3 -0.05,-0.5 0.25,-0.5 0.3,0 0.45,-0.2 0.25,-0.45 -0.15,-0.3 0.15,-0.7 0.6,-1 0.5,-0.3 0.7,-0.55 0.45,-0.55 -0.2,0 0.75,-1.1 2.2,-2.45 1.45,-1.35 2.5,-2.65 2.3,-2.95 -0.15,-0.25 0.25,-0.95 0.9,-1.55 1,-0.95 1.25,-1 1.75,-0.35 0.55,0.6 2.15,9.8 3.3,18.55 0.1,0.85 0.35,2.05 0.5,2.75 0.3,1.1 0.45,1.85 0.95,4.5 0.05,0.4 0.25,1.1 0.45,1.5 0.3,0.75 1.65,5.95 2,7.8 0.1,0.5 0.35,1.3 0.5,1.7 1.3,3.5 2.85,7.9 2.95,8.5 0.1,0.4 0.3,0.85 0.45,1 0.15,0.15 0.75,1.5 1.35,3 1.6,4.3 6.9,15.25 8.9,18.4 5.6,8.8 11.7,16.6 18.15,23.05 8.7,8.8 14.05,13.05 22.95,18.1 7.45,4.25 9.05,4.65 8.35,2.05 -0.25,-0.75 -0.4,-1.75 -0.45,-2.2 0,-0.5 -0.15,-0.9 -0.3,-0.9 -0.15,0 -0.3,-1.2 -0.35,-2.6 0,-1.45 -0.25,-2.7 -0.5,-2.75 -0.25,-0.1 -0.35,-0.85 -0.25,-1.65 0.1,-0.9 0,-1.5 -0.35,-1.5 -0.3,0 -0.4,-0.55 -0.25,-1.5 0.2,-0.8 0.15,-1.85 -0.05,-2.35 -0.2,-0.5 -0.5,-3.25 -0.6,-6.15 -0.15,-3.2 -0.45,-5.4 -0.8,-5.6 -0.45,-0.3 -0.45,-0.5 -0.05,-0.75 0.35,-0.3 0.55,-3.1 0.5,-8.5 -0.05,-4.5 0.15,-8.15 0.4,-8.15 0.25,0 0.3,-0.9 0.1,-2 -0.2,-1.35 -0.15,-2 0.25,-2 0.4,0 0.5,-0.75 0.35,-2.25 -0.15,-1.25 -0.1,-2.25 0.15,-2.25 0.25,0 0.45,-0.55 0.45,-1.25 0,-0.7 0.2,-1.25 0.45,-1.25 0.6,0 5.7,4.6 8.5,7.75 9.55,10.55 30.8,29.55 45.2,40.45 1.95,1.5 13.25,9.15 16.25,11.05 0.45,0.3 2.4,1.55 4.35,2.8 1.9,1.25 4.8,3.05 6.4,4 1.6,0.95 4.25,2.5 5.85,3.45 9.2,5.5 11.6,6.85 14.85,8.5 2,1 3.9,2.1 4.3,2.4 0.35,0.35 1.65,0.9 2.8,1.35 3,1.05 10.65,4.75 11.8,5.75 0.95,0.8 5.75,3.6 9.9,5.75 2.2,1.15 13.45,9.8 13.7,10.5 0.1,0.3 -0.75,0.5 -1.85,0.5 -1.1,0 -2,-0.15 -2,-0.35 z M 381,705.45 c 0,-0.25 -1.05,-0.95 -2.35,-1.55 -1.35,-0.55 -4.55,-2.05 -7.15,-3.25 -2.6,-1.25 -5.2,-2.45 -5.75,-2.7 -1.05,-0.4 -9.15,-5.4 -13.95,-8.6 -1.55,-1 -3.05,-1.9 -3.35,-2 -0.25,-0.05 -1.55,-1.05 -2.8,-2.25 -1.55,-1.45 -2.45,-2 -2.8,-1.65 -0.65,0.65 0.35,1.45 8.15,6.7 10.05,6.7 10.6,7.05 18.75,11.05 10.1,5 11.25,5.45 11.25,4.25 z"
       id="path1864"
       style="display:inline" />
    <path
       d="m 433.85,648.4 c -3.02519,-0.97874 -15.37937,-6.10038 -23.25,-11.5 -3.7,-2.55 -14.85353,-13.64159 -16.59343,-16.01875 -4.27165,-5.68131 -12.16417,-16.48717 -8.9772,-16.97523 3.28799,1.46575 4.55239,2.05808 6.70239,2.70808 7.5,2.35 14.01824,3.1359 22.01824,1.6359 6.75,-1.3 14.35,-4.21353 18.75,-8.96353 0.95,-1.05 4.4,-4.18647 4.85,-4.18647 0.9,0 5.15,4.2 6.25,6.4 0.4,0.85 3.42832,5.35372 5.47832,8.25372 2.05,2.9 4.68459,7.22232 5.38459,8.57232 0.75,1.4 1.68503,2.68233 2.24776,3.59245 1.38667,2.2427 3.74677,5.94187 3.74677,6.19187 0,0.75 1.69256,3.78964 2.34256,4.03964 2.16057,4.23816 2.45301,4.67482 3.9,7.6 1.57377,3.18212 1.51346,3.13191 3.3,7.65 0.0919,0.23248 3.8,0.85 1.5,2.75 l 1.11789,2.59354 c 0,2.7413 -27.54603,-0.66913 -38.76789,-4.34354 z"
       id="path1881"
       style="display:inline"
       sodipodi:nodetypes="cccccccscscssccsccc" />
  </g>
  <g
     fill="#ef881e"
     id="g6696">
    <path
       d="M715.25 744.65 c-11.30 -1.05 -21.50 -5.75 -29.05 -13.35 -11.60 -11.65 -16.70 -28.05 -16.70 -53.40 0.05 -31.85 8.25 -50.95 26.30 -61.35 7.90 -4.55 15.05 -6.05 28.95 -6.05 13.35 0 18.70 1.10 27.75 5.80 15.85 8.20 24.65 24.20 26.50 48.25 1.70 22.75 -0.70 41.40 -7.10 54.15 -2.75 5.55 -4.50 8 -8.85 12.30 -4.40 4.40 -7.80 6.75 -13.05 8.95 -2.05 0.90 -4.20 1.80 -4.75 2.05 -5.60 2.35 -19.75 3.60 -30 2.65z m14.95 -32.10 c7.15 -2.50 12.75 -9.25 15.05 -18.10 3.60 -13.95 2.60 -30 -2.55 -40.25 -4.30 -8.65 -12.95 -13.60 -20.95 -11.95 -11.60 2.45 -17.65 11.55 -19.80 29.75 -1.40 12.15 1.70 26.65 7.10 33.45 5.50 6.90 13.85 9.70 21.15 7.10z"
       id="path6692" />
    <path
       d="M821.75 744.70 c-7.10 -1 -13.40 -3.15 -18.95 -6.40 -4.50 -2.65 -11.70 -9.50 -14.55 -13.85 -3.25 -4.80 -5.85 -10.65 -5.65 -12.60 0.15 -1.75 -0.15 -1.60 7.15 -3.25 15.50 -3.55 18.15 -4.15 19.55 -4.60 2.90 -0.95 4.35 -0.60 5.85 1.35 1.75 2.35 5.85 5.45 9.35 7.05 2.35 1.10 3.45 1.30 7.50 1.30 4 -0.05 5.20 -0.25 7.50 -1.30 4.70 -2.15 8.25 -6.70 8.85 -11.45 0.45 -3.15 -1.15 -6.85 -4.35 -10.05 -3.75 -3.75 -8 -5.20 -14.75 -5.05 -2.45 0.05 -12.75 0.25 -22.85 0.40 l-18.40 0.30 0 -1.15 c0.05 -0.65 0.25 -3.40 0.50 -6.15 0.60 -6.50 2.40 -26.10 3 -32.50 0.30 -2.75 0.95 -9.95 1.50 -16 0.50 -6.05 1.10 -12.65 1.30 -14.60 l0.35 -3.65 39.65 0 39.70 0 0 15 0 15 -24.60 0.10 -24.65 0.15 -0.35 4.25 c-0.20 2.35 -0.55 5.95 -0.80 8 -0.25 2.05 -0.45 3.80 -0.40 3.85 0.05 0.05 1.85 -0.15 4.05 -0.45 5 -0.65 19 -0.15 23 0.80 19.40 4.60 30.25 19 30.25 40.05 0 13.75 -4.60 25.20 -13.45 33.40 -6.20 5.70 -12.65 9 -21.80 11.15 -2.90 0.70 -20.30 1.35 -23.50 0.90z"
       id="path6693" />
    <path
       d="M624.50 696.05 l0 -45.45 -4.10 1.60 c-2.30 0.90 -7.10 2.80 -10.70 4.20 -3.60 1.45 -7.25 2.60 -8.15 2.60 l-1.55 0 0 -13.60 c0 -7.50 -0.15 -14.85 -0.30 -16.30 l-0.35 -2.60 10.70 -5.20 c5.90 -2.85 12.65 -6 15.05 -7 l4.35 -1.80 13.50 0 13.55 0 0 64.50 0 64.50 -16 0 -16 0 0 -45.45z"
       id="path6694" />
    <path
       d="M436.05 486.55 c-4.95 -1.45 -8.50 -3.55 -12.05 -7.05 -3.55 -3.50 -5.20 -6.95 -4.90 -10.10 0.15 -1.65 0.15 -1.65 2.65 -1.55 1.40 0.05 4.30 0.25 6.50 0.45 5.10 0.40 11.15 -0.60 21 -3.60 5.15 -1.60 16 -4.20 21.15 -5.15 5.55 -1 22.05 -2.15 27.35 -1.95 l3 0.15 0.15 1.85 c0.15 1.65 0 1.95 -1.45 2.70 -0.90 0.45 -3.35 2.10 -5.40 3.70 -13.35 10.15 -25.50 16.60 -37.50 19.80 -6.60 1.75 -15.90 2.10 -20.50 0.75z"
       id="path6695" />
    <path
       d="M427.50 456.15 c-2.40 -0.45 -3 -1.50 -3 -5.25 0 -6.20 2.10 -9.25 11.85 -17.55 5.20 -4.40 7.80 -7.75 13.65 -17.60 4.60 -7.75 7.80 -11.95 13.75 -18.20 l4 -4.15 4 0.30 c17.70 1.40 40 14.50 54.90 32.25 8.60 10.20 12.85 17.25 12.85 21.30 l0 2.35 -3.10 -0.25 c-1.75 -0.15 -5.40 -0.60 -8.15 -1 -2.75 -0.40 -8.35 -1 -12.50 -1.30 -4.10 -0.35 -9.75 -0.80 -12.50 -1.05 -6 -0.50 -20.60 0.10 -27.50 1.20 -8 1.25 -9.45 1.60 -19.50 4.45 -5.20 1.55 -11.20 3.10 -13.25 3.50 -4 0.80 -13.40 1.40 -15.50 1z m52.50 -40.90 c-2.60 -3.80 -6.30 -5.95 -7.85 -4.65 -0.85 0.70 -3.15 5.25 -3.15 6.30 0 0.45 1.60 0.60 6.25 0.60 l6.30 0 -1.55 -2.25z"
       id="path6696" />
  </g>
  <g
     fill="#c2241a"
     id="g6699">
    <path
       d="M399.50 593.05 c-7.85 -1.15 -13.50 -3.95 -20.15 -10.05 -10.70 -9.80 -15.45 -25.65 -13.15 -43.50 1.65 -12.80 4.80 -21.80 11.45 -32.90 5.25 -8.75 12.95 -17.25 22.05 -24.35 4.15 -3.20 5.60 -3.10 7.95 0.45 0.95 1.45 3.35 4.10 5.30 5.85 3.85 3.45 4.05 3.95 3 8.20 -0.40 1.65 -0.40 3.10 0.05 5.60 0.55 3.20 2.80 10.50 4.25 13.90 1.60 3.75 6.90 20.85 8.85 28.55 2.10 8.35 2.10 8.60 2.10 17.20 0 6.70 -0.20 9.50 -0.80 11.85 -2.65 9.60 -9.55 16.85 -17.75 18.55 -3.65 0.80 -9.95 1.10 -13.15 0.65z"
       id="path6697" />
    <path
       d="M445.25 581.45 c-2.05 -1.85 -2.20 -3.15 -0.85 -8.60 0.65 -2.75 0.85 -5.70 0.85 -12.35 0 -11.85 -0.40 -14.05 -6.45 -35.25 -1.45 -5.20 -3.20 -11.65 -3.80 -14.25 -0.65 -2.60 -1.45 -5.35 -1.80 -6.10 -0.40 -0.75 -0.70 -2.05 -0.70 -2.90 0 -1.40 0.10 -1.50 1.90 -1.50 1.65 0 2.55 0.50 5.90 3.30 5 4.15 8.35 7.70 12.90 13.75 10.45 13.75 15.25 26.35 15.30 39.85 0 9.35 -2.45 16.90 -6.95 21.45 -3.25 3.25 -5.45 4.15 -10.40 4.15 -3.90 0 -4.20 -0.10 -5.90 -1.55z"
       id="path6698" />
    <path
       d="M459.75 340.45 c-0.55 -1.75 -17.15 -18 -22.50 -22 -9.70 -7.30 -19.40 -12.60 -31.50 -17.10 -12.65 -4.75 -22.10 -6.90 -35.85 -8.10 -12.20 -1.05 -22 -0.40 -38.65 2.55 -16.95 3.05 -19.10 3.30 -28.25 3.55 -12.55 0.35 -17.75 -0.40 -25.75 -3.70 -7.05 -2.95 -15.30 -9.95 -18.85 -15.95 -2.30 -3.95 -4.75 -10.20 -5.40 -13.90 -0.65 -3.85 -0.65 -11.80 0.05 -15.60 0.85 -4.65 3.25 -8.95 7.20 -12.95 6.30 -6.35 11.85 -8.05 24.55 -7.60 8.65 0.25 14.05 1.45 23.25 5.10 13.40 5.35 24.70 12.20 45.25 27.60 4.15 3.10 7.70 5.65 7.85 5.65 0.50 0 0.40 -4.45 -0.15 -6.20 -1.30 -4.25 -3.10 -9.50 -4.50 -13.30 -5.25 -14.15 -6.20 -18.50 -5.85 -26.65 0.40 -9.70 2.70 -15.05 8.25 -19.10 4.55 -3.30 7.35 -4 16.10 -4 6 0 8.55 0.20 11.25 0.95 4.50 1.20 10.90 4.15 15.15 7 11.60 7.70 25.85 27.60 32.10 44.80 2.05 5.70 8 24.90 8 25.90 0 1.15 4.55 -8.75 6.15 -13.40 3.20 -9.40 6.60 -15.25 10.15 -17.30 2 -1.20 2.65 -1.30 5.60 -1.10 4.20 0.30 6.05 1.25 9.90 5.10 3.60 3.65 6.65 8.90 8.65 15.05 2.45 7.45 2.75 9.75 2.75 20.50 0 8.95 -0.15 10.60 -1.30 15.75 -2.75 12.20 -8.05 23.45 -16.80 35.65 -2.60 3.65 -2.85 3.85 -4.65 3.85 -1.45 0 -1.95 -0.25 -2.20 -1.05z"
       id="path6699" />
  </g>
  <g
     fill="#0d0d0a"
     id="g6716">
    <path
       d="M487.20 763.50 c-2.90 -0.60 -4.90 -1.50 -13.15 -5.95 -12.60 -6.80 -21.45 -9.85 -48.05 -16.50 -8.65 -2.20 -17.55 -4.45 -19.75 -5.05 -7.30 -1.95 -26.45 -8.10 -29.70 -9.60 -1.75 -0.75 -3.30 -1.30 -3.40 -1.20 -0.45 0.40 7.25 12 10 15.05 3.10 3.45 3.15 3.90 0.85 6 -1.55 1.45 -9.80 1.75 -21.50 0.90 -13.80 -1 -21.80 -2.25 -34.50 -5.40 -18.15 -4.50 -28.50 -8.80 -49.70 -20.70 -9.40 -5.30 -24 -16.80 -34.95 -27.55 -5.10 -5 -6.85 -6.40 -6.65 -5.50 1.55 7.25 2.95 19.20 2.65 22.65 -0.35 3.70 -1.30 4.85 -4.05 4.85 -6.50 0 -22.80 -7.45 -34.30 -15.65 -10.30 -7.35 -21.85 -18.70 -28.30 -27.80 -20.15 -28.40 -24.25 -58.10 -13.15 -95.05 2.40 -7.90 4 -12.90 4.65 -14.50 0.25 -0.65 -0.20 -0.75 -3.30 -0.60 -4.80 0.25 -14.65 -1.05 -20.20 -2.70 -8.20 -2.35 -16.15 -6.65 -21.05 -11.40 -2.50 -2.50 -2.65 -2.75 -2.65 -5.15 0 -1.50 0.25 -2.75 0.65 -3.10 0.40 -0.30 2.60 -1.30 4.90 -2.25 8.35 -3.35 14.90 -7.85 23.15 -15.75 9.80 -9.50 17.15 -19.60 23.50 -32.35 5.70 -11.50 6.30 -13 21.65 -57.95 2.05 -6.05 4.30 -12.65 4.95 -14.65 0.70 -1.95 1.95 -5.35 2.90 -7.50 0.90 -2.10 2.75 -6.45 4.10 -9.60 4.30 -10.20 12 -25.20 18.25 -35.75 10 -16.75 26.30 -33.55 44.65 -45.95 3.20 -2.15 5.80 -4 5.80 -4.10 0 -0.10 -2 -1.20 -4.45 -2.40 -16.45 -8.05 -27.35 -22.70 -31.10 -41.85 -0.35 -1.80 -0.65 -7 -0.65 -11.95 0 -9.55 0.35 -11.75 3.30 -19.20 6.45 -16.55 21 -26.50 40.15 -27.45 8.75 -0.45 22.25 1.60 32.50 4.95 5.55 1.85 19.45 8.20 22.25 10.20 0.85 0.60 1.60 1.05 1.70 0.95 0.05 -0.10 0 -1.85 -0.15 -3.85 -0.40 -4.85 0.15 -12.65 1.15 -16.65 4.35 -17.05 20.10 -27.10 41.30 -26.30 17.35 0.60 33.40 8 45.85 21 8.05 8.45 13.75 16.85 18.25 26.90 1.35 3.15 2.60 5.80 2.70 5.90 0.15 0.15 1.40 -0.90 2.85 -2.25 5.80 -5.60 12.25 -7.35 20.35 -5.40 16.60 3.90 29.85 21.35 33.95 44.70 0.75 4.05 1.50 14.55 1.30 17.25 -0.10 1.10 -0.30 3.90 -0.50 6.25 -0.65 8.35 -3.45 19.10 -7.55 28.85 -4.05 9.70 -9 18.05 -19.40 32.85 -0.30 0.45 0.20 2.25 1.60 5.35 2.65 6.10 4.10 10.50 4.45 13.60 0.35 2.80 -0.25 2.40 8.15 5.10 7 2.20 16.20 6.60 22.25 10.70 6.95 4.70 17.90 13.80 22.90 19.05 11.15 11.75 18.40 25.70 20.85 39.90 1.50 8.70 1.25 14.05 -0.70 15.05 -0.60 0.30 -5.55 0.60 -11.55 0.75 -11.80 0.25 -16.10 0.95 -20.50 3.15 l-3 1.55 41.25 -0.35 c22.70 -0.15 106.40 -0.30 186 -0.30 l144.75 0 2.75 1.35 c5.85 2.80 11.60 8.65 13.50 13.80 1 2.65 1 3.85 1 129.25 0 135.80 0.10 128.70 -2.50 133.85 -3.45 6.75 -10.40 12.45 -18 14.70 -2.50 0.75 -19.30 0.85 -201 1 -109.05 0.10 -199.15 0 -200.30 -0.20z m245.05 -20.50 c4.30 -0.50 9.35 -1.60 11.50 -2.50 0.55 -0.25 2.70 -1.15 4.75 -2.05 5.25 -2.20 8.65 -4.55 13.05 -8.95 4.35 -4.30 6.10 -6.75 8.85 -12.30 6.25 -12.50 8.70 -30.05 7.10 -51.15 -1.25 -16.35 -5.65 -28.80 -13.35 -37.85 -6.75 -7.90 -15.85 -13.05 -27.20 -15.40 -4.70 -1 -19.15 -1.05 -24.45 -0.10 -11.10 2 -21.20 7.70 -27.60 15.65 -9.45 11.75 -13.85 27.50 -13.90 49.55 0 15.80 2.65 29.45 7.65 39.35 5.60 11.15 15.15 19.60 26.50 23.45 7.35 2.50 17.70 3.35 27.10 2.30z m111.25 -0.65 c9.25 -2.10 15.75 -5.40 22.05 -11.20 12.15 -11.25 16.65 -30.05 11.05 -46.15 -4.55 -13.10 -14.45 -21.50 -29.10 -24.55 -4.80 -1.05 -19.45 -0.90 -22.95 0.20 -2.85 0.90 -3.75 0.75 -3.35 -0.55 0.30 -1.05 1.30 -9.40 1.70 -14.85 l0.35 -4 24.65 -0.15 24.60 -0.10 0 -13.50 0 -13.50 -38.20 0 -38.15 0 -0.35 3.65 c-0.20 1.95 -0.80 8.55 -1.30 14.60 -0.55 6.05 -1.20 13.25 -1.50 16 -0.85 9.25 -2.50 26.95 -2.75 30.25 -0.15 1.80 -0.40 4 -0.50 4.90 l-0.20 1.65 16.85 -0.30 c31.20 -0.55 28.45 -0.60 32.55 0.65 3.15 1 4.15 1.60 6.55 4 3.55 3.55 4.70 6.60 4.40 11.50 -0.35 5.95 -3.50 10.50 -8.90 13 -2.50 1.15 -3.35 1.30 -9 1.30 -5.40 0 -6.60 -0.15 -8.65 -1.10 -4.05 -1.85 -7.85 -4.70 -10.15 -7.70 -0.95 -1.20 -1.25 -1.30 -2.50 -0.90 -0.80 0.25 -4.50 1.15 -8.20 2 -3.70 0.85 -8.45 2 -10.55 2.50 -2.05 0.55 -4.35 1 -5 1 -0.70 0 -1.65 0.30 -2.10 0.65 -0.75 0.55 -0.65 0.95 0.90 4.25 2.70 5.75 5.90 10.15 10.65 14.65 7.70 7.30 15.80 11.10 26.85 12.65 3.10 0.45 17.10 -0.15 20.25 -0.85z m-188.50 -65.35 l0 -63 -12.05 0 -12.05 0 -5.35 2.25 c-2.90 1.25 -9.55 4.35 -14.70 6.85 l-9.40 4.65 0.05 14.70 c0 8.10 0.10 14.80 0.15 14.85 0.15 0.15 11.65 -4.30 18.35 -7.10 2.35 -1 4.65 -1.90 5.15 -2.05 0.80 -0.25 0.85 2.15 0.85 45.80 l0 46.05 14.50 0 14.50 0 0 -63z m-176.50 59.70 c0 -0.55 1.55 -11.55 2 -14.20 1.15 -6.60 1.60 -17.90 1.05 -24.10 -1.50 -15.50 -2.70 -22.05 -6.10 -32.65 -4.80 -15.15 -12.25 -30.15 -24.35 -49.20 -4.10 -6.45 -5.75 -9 -11.25 -16.95 l-2.50 -3.60 -2.75 3 c-4.50 5.05 -9.85 8.20 -16.85 10.15 -3.30 0.85 -5.35 1.05 -11.50 1.05 -6.50 0 -8.20 -0.20 -12.75 -1.35 -11.50 -2.95 -21.65 -9.50 -29.15 -18.85 -9.20 -11.55 -13.85 -25.65 -13.85 -42.20 0 -12.30 2.35 -23.55 7.60 -36.75 6.60 -16.50 17.45 -31.30 32.80 -44.65 l5.10 -4.45 0 -2.55 c0 -2.85 0.50 -2.80 -5.25 -0.70 -4.85 1.80 -9.95 2.80 -16.20 3.15 -17.05 0.95 -35.55 -8.25 -46.70 -23.20 -5.25 -7.15 -7.60 -11.95 -10.15 -21.15 -1.30 -4.55 -1.30 -19.60 -0.05 -24.85 2.60 -10.85 7.35 -19.85 14.20 -26.80 3.55 -3.60 8.60 -7.50 10.55 -8.05 1.75 -0.55 1.30 -1.30 -0.75 -1.30 -2.40 0 -3.05 -0.45 -3.60 -2.40 -1.80 -6.25 14.30 -11.35 30.55 -9.65 14.90 1.55 30.15 7.10 42.30 15.40 1.85 1.30 6.75 5.05 10.85 8.35 12.80 10.35 15.15 11.70 20.95 12.15 4 0.30 7.85 -0.50 12.45 -2.60 2.45 -1.15 2.85 -1.50 2.85 -2.65 -0.05 -3.65 -7.40 -16.35 -14.65 -25.35 -15.15 -18.75 -35 -30.75 -59.10 -35.65 -11.05 -2.25 -18.50 -3.10 -27.40 -3.10 -11.90 0.05 -24.60 1.55 -36.60 4.45 -31.45 7.55 -59.15 25.60 -77.25 50.40 -6.65 9.10 -15.40 24.45 -20 35.15 -0.90 2.05 -2.05 4.65 -2.55 5.80 -3 6.70 -9.50 25 -14.75 41.45 -0.95 3.05 -1.95 5.95 -2.20 6.50 -0.25 0.55 -0.90 2.60 -1.50 4.50 -0.90 3.10 -2.30 7 -3.50 10 -0.20 0.55 -0.85 2.25 -1.40 3.75 -9.95 27.15 -21.10 46.15 -35.30 60.15 -3.30 3.25 -6.65 6.30 -7.40 6.75 -2.75 1.60 -1.80 2.10 4.10 2.10 6.25 0 10.75 -0.90 19.55 -3.90 5.10 -1.75 16.20 -6.85 17.85 -8.20 2.35 -1.95 0.60 5.75 -3.55 15.60 -1.80 4.25 -4.80 11.50 -6.75 16.05 -8.60 20.40 -11.65 31.85 -12.55 47.05 -0.85 15.35 1.15 25.40 7.55 38 6.95 13.65 18.10 26.15 33.35 37.35 1.50 1.10 2.85 1.95 2.95 1.80 0.10 -0.10 -0.05 -2.05 -0.40 -4.35 -1.05 -7 -0.75 -18.15 0.70 -25.40 0.70 -3.45 1.70 -7.60 2.25 -9.30 1.35 -4.30 5.10 -13.20 5.55 -13.20 0.20 0 1.15 1.55 2.15 3.50 4.55 8.60 13.30 21.40 20.85 30.45 5.20 6.25 16.20 17.15 24.25 24.10 9.35 8.10 23.15 16.85 34.20 21.75 5.60 2.45 15.85 5.95 23.05 7.90 6.90 1.85 21.50 4.65 21.50 4.10 0 -0.15 -1 -1.95 -2.30 -4 -3.95 -6.55 -7.95 -18.55 -9.20 -27.65 -0.60 -4.55 -0.60 -11.05 0.05 -11.45 0.25 -0.15 1.90 0.95 3.65 2.45 3.55 3 14.15 10.10 19.45 13.05 11.80 6.55 24.45 11.65 40.35 16.40 3.70 1.10 7.75 2.30 9 2.65 5.30 1.60 17.60 4.85 28.50 7.50 14.05 3.45 21.45 5.80 28.50 9.10 2.90 1.35 5.80 2.70 6.50 3 1.35 0.65 3 0.80 3 0.35z m55.60 -140.25 c6.40 -1.35 12.40 -6 15.40 -11.90 1.85 -3.75 3.50 -9.80 3.50 -13.05 l0 -2.35 -3.85 -0.30 c-2.15 -0.20 -6.15 -0.45 -8.95 -0.65 l-5.05 -0.30 -0.35 3.15 c-0.40 4.10 -1.65 6.45 -4 7.65 -2.80 1.40 -5.75 0.80 -7.95 -1.65 -2.70 -2.95 -2.95 -5.85 -2.75 -30.05 0.15 -20.55 0.15 -20.75 1.35 -23.35 1.35 -3.05 3.60 -4.65 6.45 -4.65 4.25 0 6.65 3.30 7 9.45 l0.20 3.70 5.85 -0.35 c3.20 -0.20 7.20 -0.45 8.95 -0.65 l3.10 -0.30 0 -3.30 c0 -6.85 -3.10 -15.05 -7.40 -19.65 -5.80 -6.20 -16.90 -8.40 -26.95 -5.35 -5.85 1.80 -10.40 5.75 -13.40 11.70 -3.05 6 -3.25 8.45 -3.25 35.50 0 22.05 0.10 24.30 1 27.85 2.55 10.15 8.45 16.35 17.80 18.60 3.60 0.90 9.75 1 13.30 0.25z m148.25 -0.15 c10.60 -2.25 17.50 -11.05 18.90 -24.10 l0.35 -3.05 -5.70 -0.35 c-3.10 -0.15 -7.30 -0.45 -9.25 -0.60 l-3.65 -0.30 0 1.80 c0 2.65 -1.40 6.55 -2.85 8 -2.25 2.25 -7 2.35 -9.05 0.15 -2.75 -2.95 -2.80 -3.45 -3 -26 -0.20 -22.10 0.10 -26.45 1.95 -29.60 1.85 -3.10 5.10 -4.05 8.75 -2.50 2.25 0.95 3.75 4.20 4.10 8.85 l0.25 3.40 2.55 0 c1.40 0 5.40 -0.25 8.95 -0.60 l6.35 -0.60 0 -2.55 c0 -11.05 -5.50 -20.95 -13.65 -24.70 -5.15 -2.35 -16.05 -2.90 -21 -1.05 -6.25 2.35 -11.10 6.60 -13.70 12.05 -3.05 6.30 -3.25 8.50 -3.05 36 0.20 27.15 0.15 26.35 3.50 33.25 4.05 8.30 12.15 13.10 22.40 13.15 2.05 0 5.15 -0.30 6.85 -0.65z m80.85 -3.60 c-0.70 -1.60 -1.65 -3.85 -2.15 -4.95 -1.30 -2.80 -5.95 -13.30 -9.20 -20.75 -1.55 -3.45 -4.05 -9.05 -5.60 -12.50 -4.20 -9.30 -4.20 -7.95 -0.40 -15.90 3.60 -7.60 6.05 -12.80 8.15 -17.35 0.75 -1.65 2.15 -4.70 3.10 -6.75 2.70 -5.65 5.40 -11.60 5.40 -11.80 0 -0.10 -4.15 -0.20 -9.25 -0.20 l-9.30 0 -1 2.40 c-0.60 1.30 -2.75 6.40 -4.80 11.35 -2.05 4.95 -4.05 9.70 -4.40 10.50 -2.40 5.55 -4.75 11.35 -4.75 11.75 0 0.80 -1.15 3 -1.60 3 -0.20 0 -0.40 -8.75 -0.40 -19.50 l0 -19.50 -9.25 0 -9.25 0 0 46.50 0 46.50 9.25 0 9.25 0 0 -19.25 c0 -20.15 0 -20.30 2.10 -18.60 0.95 0.75 5.75 12 9.95 23.10 1.10 3.05 2.85 7.60 3.85 10.10 l1.75 4.65 9.80 0.10 c5.40 0.10 9.85 0.15 9.95 0.10 0.05 0 -0.45 -1.35 -1.20 -3z m69.35 2.80 l8 0 -0.15 -27 c-0.10 -14.85 0 -27 0.15 -27 0.15 0 0.60 0.95 1 2.15 0.35 1.15 2.10 5.60 3.85 9.85 1.75 4.25 6.25 15.45 10 24.85 l6.85 17.15 8.40 0 8.35 0 0 -46.50 0 -46.50 -9 0 -9 0 0 25.85 c0 14.20 -0.15 25.65 -0.35 25.50 -0.15 -0.20 -1.05 -2.20 -1.90 -4.45 -0.90 -2.30 -3.40 -8.40 -5.55 -13.65 -2.20 -5.20 -6.10 -14.85 -8.70 -21.35 l-4.75 -11.90 -7.60 0 c-4.15 0 -7.90 -0.15 -8.35 -0.30 -0.75 -0.30 -0.80 4.05 -0.80 46.80 0 42.75 0.05 47.10 0.80 46.80 0.45 -0.15 4.35 -0.30 8.75 -0.30z m-254.15 -19 l-0.15 -19 7.90 0 7.85 0 0 19 0 19 9 0 9 0 0 -46.50 0 -46.50 -9 0 -9 0 0 18.75 0 18.75 -7.85 0 -7.90 0 0.05 -18.75 0.10 -18.75 -9.20 0 -9.20 0 0 46.50 0 46.50 9.25 0 9.30 0 -0.15 -19z m62.45 -27.65 l0.15 -46.35 -9.40 0.10 -9.35 0.15 -0.15 46.40 -0.10 46.35 9.35 -0.10 9.40 -0.15 0.10 -46.40z m172.90 37.65 l0 -9.05 -12.25 0.05 -12.25 0.05 -0.15 -10.05 -0.10 -10.05 10.55 0.10 10.55 0.05 0 -8.10 0 -8.15 -10.55 0.10 -10.55 0.10 0 -10.25 0 -10.30 12 0 12 0 0 -9.25 0 -9.25 -21.30 0.10 -21.30 0.15 0 7.50 c0 4.15 0 25 0.05 46.40 l0.05 38.85 21.65 0 21.60 0 0 -9z m-402.75 4.40 c8.20 -1.55 15.25 -8.90 17.85 -18.55 0.60 -2.25 0.85 -5.10 0.85 -10.35 0 -6.85 -0.10 -7.70 -2.10 -15.70 -1.90 -7.60 -7.15 -24.60 -8.85 -28.55 -3.90 -9.15 -5.55 -18.15 -4.25 -22.75 0.50 -1.75 0.45 -1.75 -3.20 -5.10 -2 -1.85 -4.40 -4.50 -5.30 -5.90 -0.90 -1.35 -1.65 -2.50 -1.75 -2.50 -0.40 0 -6.50 5 -10.20 8.35 -9.80 8.95 -18.75 22.60 -22.60 34.40 -6.40 19.65 -5.35 36.85 3.05 49.65 4.15 6.30 11.20 12.55 16.80 14.90 7.10 3 12.25 3.55 19.70 2.10z m44.75 -10.35 c2.75 -1.25 6.30 -4.95 7.85 -8.15 5 -10.15 4.35 -22.50 -1.85 -37.15 -2.55 -5.95 -10.65 -17.80 -16.35 -23.85 -2.85 -3.05 -10.30 -9.40 -11 -9.40 -0.25 0 -0.10 0.60 0.25 1.40 0.40 0.75 1.20 3.50 1.85 6.10 0.60 2.60 2.35 9.05 3.80 14.25 6.20 21.75 6.45 23.25 6.45 36.75 0 8.20 -0.20 11 -0.90 14 l-0.90 3.75 1.75 1.60 c1.55 1.45 2.15 1.65 4.40 1.65 1.50 0 3.55 -0.45 4.65 -0.95z m-0.70 -96.25 c11.90 -3.15 24.10 -9.60 37.50 -19.80 2.05 -1.60 4.50 -3.25 5.40 -3.75 0.90 -0.45 1.55 -0.95 1.40 -1.05 -1.10 -1.10 -22.05 0.15 -29.85 1.75 -5.25 1.10 -14.35 3.40 -19.75 5 -3.85 1.15 -8.10 2.20 -12.15 3 -3.50 0.70 -12.55 0.70 -14.55 0 -2.35 -0.80 -2.75 -0.10 -1.70 2.85 0.65 1.70 1.85 3.40 4.15 5.70 7.65 7.60 17.10 9.60 29.55 6.30z m-13.80 -30.60 c2.20 -0.45 8.30 -2 13.50 -3.50 5.25 -1.55 11.20 -3.10 13.25 -3.45 11.60 -2.15 27.05 -3.15 36.50 -2.30 2.90 0.30 8.50 0.75 12.50 1.05 6.35 0.50 14.25 1.45 19.40 2.35 1.30 0.20 1.60 0.10 1.60 -0.60 0 -2.50 -5.80 -11.45 -12.85 -19.80 -14.40 -17.15 -35.65 -29.95 -53.40 -32.20 l-2.55 -0.30 -4 4.15 c-5.90 6.20 -9.10 10.40 -13.70 18.15 -5.85 9.85 -8.45 13.20 -13.65 17.60 -6.80 5.75 -9.05 8.20 -10.55 11.30 -2.20 4.70 -1.55 7.95 1.70 8.45 2.15 0.30 8.05 -0.10 12.25 -0.90z m-63.75 -7.40 c14.15 -2.35 25.25 -10.85 31.20 -24.05 2.45 -5.35 3.30 -9.80 3.30 -16.70 -0.05 -12.35 -3.20 -20.20 -11.50 -28.55 -8.10 -8.20 -16.85 -12.20 -28.10 -12.85 -8.90 -0.55 -16.25 1.75 -24 7.45 -7.85 5.75 -14.10 15.75 -15.95 25.40 -1.80 9.45 0.30 21.35 5 28.75 7.30 11.45 17.55 18.50 29.80 20.50 5.30 0.85 5.35 0.85 10.25 0.05z m51.55 -25.40 c2.75 -3.55 8.80 -13.35 11.65 -18.90 0.80 -1.50 1.85 -3.35 2.40 -4.10 0.50 -0.70 0.90 -1.45 0.90 -1.60 0 -0.15 -1.20 -0.30 -2.60 -0.35 -3.65 0 -9.10 -1.10 -12.35 -2.40 -1.45 -0.60 -2.80 -1 -2.90 -0.85 -0.10 0.10 0.05 1.20 0.40 2.35 1.30 4.55 0.40 24.20 -1.30 28.60 -0.25 0.55 -0.10 0.85 0.35 0.85 0.35 0 1.95 -1.65 3.45 -3.60z m36.05 -84.75 c8.75 -12.20 14.05 -23.45 16.80 -35.65 1.10 -4.95 1.30 -6.95 1.30 -14.25 0 -9.15 -0.40 -11.80 -2.75 -19 -3.50 -10.75 -10.50 -19.10 -16.75 -20.05 -5.40 -0.80 -9.95 5 -14.65 18.55 -0.80 2.20 -2.55 6.50 -3.95 9.55 -1.40 3.05 -2.70 6.15 -2.90 6.90 -0.45 1.85 -0.95 1.15 -1.95 -2.70 -1.20 -4.75 -6.05 -20.35 -8.05 -25.95 -6.35 -17.60 -20.50 -37.50 -32.30 -45.35 -4.25 -2.85 -10.65 -5.80 -15.15 -7 -5.35 -1.45 -15 -1.35 -19 0.20 -8.60 3.30 -12.95 9.80 -13.60 20.45 -0.40 6.35 0.80 11.60 5.85 25.15 1.40 3.80 3.10 8.80 4.55 13.35 0.70 2.25 0.70 8.25 0 9.60 -0.75 1.40 -0.85 1.35 -10.55 -5.95 -15.65 -11.70 -23.75 -17.10 -33.05 -21.95 -13.60 -7.10 -24.10 -10.45 -34.15 -10.90 -10.90 -0.50 -16.95 1.50 -23.05 7.60 -5.50 5.55 -7.75 11.15 -7.75 19.25 0 6.55 2.10 13.65 5.90 20.20 3.55 6 11.80 13 18.85 15.95 7.80 3.20 13.40 4.05 24.25 3.70 7.45 -0.25 11.20 -0.75 26.80 -3.55 16.45 -2.95 28.50 -3.70 41.35 -2.55 14.05 1.25 23.40 3.35 36.10 8.10 12.10 4.50 21.80 9.80 31.50 17.10 5.35 4 21.95 20.25 22.50 22 0.15 0.60 0.50 1.05 0.70 1.05 0.20 0 1.65 -1.75 3.15 -3.85z"
       id="path6713" />
    <path
       d="M717.20 714.05 c-3.30 -1.10 -7.15 -3.95 -9.65 -7.10 -9.65 -12.10 -10 -43.05 -0.70 -57.30 2.20 -3.35 4.60 -5.45 8.30 -7.20 11.20 -5.30 23.45 -0.95 29.05 10.25 5.20 10.40 6.30 28.80 2.55 43.25 -2.30 8.85 -7.90 15.60 -15.05 18.10 -3.50 1.25 -10.85 1.25 -14.50 0z"
       id="path6714" />
    <path
       d="M467 417.75 c0 -1.85 1.90 -6.55 3.35 -8.25 1.50 -1.80 2.85 -1.90 5.90 -0.45 2.50 1.15 4.50 3.25 6.55 6.75 1.10 1.90 1.25 2.40 0.65 2.75 -0.40 0.25 -4.25 0.45 -8.55 0.45 l-7.90 0 0 -1.25z"
       id="path6715" />
    <path
       d="M378.50 429.30 c-6.55 -1.85 -11.35 -6.55 -14.40 -14.15 -1.20 -3.10 -1.30 -4 -1.35 -10.40 0 -7.95 0.65 -10.75 3.55 -15.55 5.10 -8.50 13.55 -11.80 22.35 -8.80 2.40 0.80 2.90 1.55 1.65 2.55 -1.05 0.85 -2.30 4.90 -2.30 7.25 0 2.30 1.50 5.95 3.15 7.70 3 3.20 7.60 3.90 10.80 1.65 2.45 -1.75 2.75 -1.10 2.40 5.15 -0.30 5.60 -0.65 7.25 -2.40 11.15 -0.50 1.20 -0.95 2.25 -0.95 2.40 0 0.95 -4.20 5.80 -6.65 7.55 -4.95 3.65 -10.70 4.90 -15.85 3.50z"
       id="path6716" />
  </g>
</svg>
